<?xml version="1.0" encoding="UTF-8" standalone="no"?>
<svg width="50px" height="83px" viewBox="0 0 50 83" version="1.1" xmlns="http://www.w3.org/2000/svg" xmlns:xlink="http://www.w3.org/1999/xlink">
    <!-- Generator: Sketch 41.2 (35397) - http://www.bohemiancoding.com/sketch -->
    <title>Group</title>
    <desc>Created with Sketch.</desc>
    <defs>
        <polygon id="path-1" points="0 38.7333333 11.1111111 49.8 11.1111111 71.9333333 0 60.8666667"></polygon>
        <mask id="mask-2" maskContentUnits="userSpaceOnUse" maskUnits="objectBoundingBox" x="0" y="0" width="11.1111111" height="33.2" fill="white">
            <use xlink:href="#path-1"></use>
        </mask>
        <polygon id="path-3" points="11.1111111 49.8 27.7777778 44.2666667 27.7777778 66.4 11.1111111 71.9333333"></polygon>
        <mask id="mask-4" maskContentUnits="userSpaceOnUse" maskUnits="objectBoundingBox" x="0" y="0" width="16.6666667" height="27.6666667" fill="white">
            <use xlink:href="#path-3"></use>
        </mask>
        <polygon id="path-5" points="16.6666667 33.2 27.7777778 44.2666667 11.1111111 49.8 0 38.7333333"></polygon>
        <mask id="mask-6" maskContentUnits="userSpaceOnUse" maskUnits="objectBoundingBox" x="0" y="0" width="27.7777778" height="16.6" fill="white">
            <use xlink:href="#path-5"></use>
        </mask>
        <polygon id="path-7" points="11.1111111 49.8 22.2222222 60.8666667 22.2222222 83 11.1111111 71.9333333"></polygon>
        <mask id="mask-8" maskContentUnits="userSpaceOnUse" maskUnits="objectBoundingBox" x="0" y="0" width="11.1111111" height="33.2" fill="white">
            <use xlink:href="#path-7"></use>
        </mask>
        <polygon id="path-9" points="22.2222222 60.8666667 38.8888889 55.3333333 38.8888889 77.4666667 22.2222222 83"></polygon>
        <mask id="mask-10" maskContentUnits="userSpaceOnUse" maskUnits="objectBoundingBox" x="0" y="0" width="16.6666667" height="27.6666667" fill="white">
            <use xlink:href="#path-9"></use>
        </mask>
        <polygon id="path-11" points="27.7777778 44.2666667 38.8888889 55.3333333 22.2222222 60.8666667 11.1111111 49.8"></polygon>
        <mask id="mask-12" maskContentUnits="userSpaceOnUse" maskUnits="objectBoundingBox" x="0" y="0" width="27.7777778" height="16.6" fill="white">
            <use xlink:href="#path-11"></use>
        </mask>
        <polygon id="path-13" points="11.1111111 27.6666667 22.2222222 38.7333333 22.2222222 60.8666667 11.1111111 49.8"></polygon>
        <mask id="mask-14" maskContentUnits="userSpaceOnUse" maskUnits="objectBoundingBox" x="0" y="0" width="11.1111111" height="33.2" fill="white">
            <use xlink:href="#path-13"></use>
        </mask>
        <polygon id="path-15" points="22.2222222 38.7333333 38.8888889 33.2 38.8888889 55.3333333 22.2222222 60.8666667"></polygon>
        <mask id="mask-16" maskContentUnits="userSpaceOnUse" maskUnits="objectBoundingBox" x="0" y="0" width="16.6666667" height="27.6666667" fill="white">
            <use xlink:href="#path-15"></use>
        </mask>
        <polygon id="path-17" points="27.7777778 22.1333333 38.8888889 33.2 22.2222222 38.7333333 11.1111111 27.6666667"></polygon>
        <mask id="mask-18" maskContentUnits="userSpaceOnUse" maskUnits="objectBoundingBox" x="0" y="0" width="27.7777778" height="16.6" fill="white">
            <use xlink:href="#path-17"></use>
        </mask>
        <polygon id="path-19" points="11.1111111 5.53333333 22.2222222 16.6 22.2222222 38.7333333 11.1111111 27.6666667"></polygon>
        <mask id="mask-20" maskContentUnits="userSpaceOnUse" maskUnits="objectBoundingBox" x="0" y="0" width="11.1111111" height="33.2" fill="white">
            <use xlink:href="#path-19"></use>
        </mask>
        <polygon id="path-21" points="22.2222222 16.6 38.8888889 11.0666667 38.8888889 33.2 22.2222222 38.7333333"></polygon>
        <mask id="mask-22" maskContentUnits="userSpaceOnUse" maskUnits="objectBoundingBox" x="0" y="0" width="16.6666667" height="27.6666667" fill="white">
            <use xlink:href="#path-21"></use>
        </mask>
        <polygon id="path-23" points="27.7777778 0 38.8888889 11.0666667 22.2222222 16.6 11.1111111 5.53333333"></polygon>
        <mask id="mask-24" maskContentUnits="userSpaceOnUse" maskUnits="objectBoundingBox" x="0" y="0" width="27.7777778" height="16.6" fill="white">
            <use xlink:href="#path-23"></use>
        </mask>
        <polygon id="path-25" points="22.2222222 16.6 33.3333333 27.6666667 33.3333333 49.8 22.2222222 38.7333333"></polygon>
        <mask id="mask-26" maskContentUnits="userSpaceOnUse" maskUnits="objectBoundingBox" x="0" y="0" width="11.1111111" height="33.2" fill="white">
            <use xlink:href="#path-25"></use>
        </mask>
        <polygon id="path-27" points="33.3333333 27.6666667 50 22.1333333 50 44.2666667 33.3333333 49.8"></polygon>
        <mask id="mask-28" maskContentUnits="userSpaceOnUse" maskUnits="objectBoundingBox" x="0" y="0" width="16.6666667" height="27.6666667" fill="white">
            <use xlink:href="#path-27"></use>
        </mask>
        <polygon id="path-29" points="38.8888889 11.0666667 50 22.1333333 33.3333333 27.6666667 22.2222222 16.6"></polygon>
        <mask id="mask-30" maskContentUnits="userSpaceOnUse" maskUnits="objectBoundingBox" x="0" y="0" width="27.7777778" height="16.6" fill="white">
            <use xlink:href="#path-29"></use>
        </mask>
    </defs>
    <g id="Page-1" stroke="none" stroke-width="1" fill="none" fill-rule="evenodd">
        <g id="Group" stroke="#FFFFFF">
            <use id="Rectangle-7" mask="url(#mask-2)" fill="#4FD5D6" xlink:href="#path-1"></use>
            <use id="Rectangle-7" mask="url(#mask-4)" fill="#000000" xlink:href="#path-3"></use>
            <use id="Rectangle-8" mask="url(#mask-6)" fill="#00CACC" xlink:href="#path-5"></use>
            <use id="Rectangle-7" mask="url(#mask-8)" fill="#4FD5D6" xlink:href="#path-7"></use>
            <use id="Rectangle-7" mask="url(#mask-10)" fill="#00CACC" xlink:href="#path-9"></use>
            <use id="Rectangle-8" mask="url(#mask-12)" fill="#000000" xlink:href="#path-11"></use>
            <use id="Rectangle-7" mask="url(#mask-14)" fill="#4FD5D6" xlink:href="#path-13"></use>
            <use id="Rectangle-7" mask="url(#mask-16)" fill="#00CACC" xlink:href="#path-15"></use>
            <use id="Rectangle-8" mask="url(#mask-18)" fill="#000000" xlink:href="#path-17"></use>
            <use id="Rectangle-7" mask="url(#mask-20)" fill="#4FD5D6" xlink:href="#path-19"></use>
            <use id="Rectangle-7" mask="url(#mask-22)" fill="#000000" xlink:href="#path-21"></use>
            <use id="Rectangle-8" mask="url(#mask-24)" fill="#00CACC" xlink:href="#path-23"></use>
            <use id="Rectangle-7" mask="url(#mask-26)" fill="#4FD5D6" xlink:href="#path-25"></use>
            <use id="Rectangle-7" mask="url(#mask-28)" fill="#00CACC" xlink:href="#path-27"></use>
            <use id="Rectangle-8" mask="url(#mask-30)" fill="#00CACC" xlink:href="#path-29"></use>
        </g>
    </g>
</svg>