<?xml version="1.0" encoding="UTF-8" standalone="no"?>
<svg width="374px" height="311px" viewBox="0 0 374 311" version="1.1" xmlns="http://www.w3.org/2000/svg" xmlns:xlink="http://www.w3.org/1999/xlink">
    <!-- Generator: Sketch 41.2 (35397) - http://www.bohemiancoding.com/sketch -->
    <title>Group 2</title>
    <desc>Created with Sketch.</desc>
    <defs>
        <polygon id="path-1" points="0 10.7142857 7.13846154 17.8571429 7.13846154 32.1428571 0 25"></polygon>
        <mask id="mask-2" maskContentUnits="userSpaceOnUse" maskUnits="objectBoundingBox" x="0" y="0" width="7.13846154" height="21.4285714" fill="white">
            <use xlink:href="#path-1"></use>
        </mask>
        <polygon id="path-3" points="7.13846154 17.8571429 17.8461538 14.2857143 17.8461538 28.5714286 7.13846154 32.1428571"></polygon>
        <mask id="mask-4" maskContentUnits="userSpaceOnUse" maskUnits="objectBoundingBox" x="0" y="0" width="10.7076923" height="17.8571429" fill="white">
            <use xlink:href="#path-3"></use>
        </mask>
        <polygon id="path-5" points="10.7076923 7.14285714 17.8461538 14.2857143 7.13846154 17.8571429 0 10.7142857"></polygon>
        <mask id="mask-6" maskContentUnits="userSpaceOnUse" maskUnits="objectBoundingBox" x="0" y="0" width="17.8461538" height="10.7142857" fill="white">
            <use xlink:href="#path-5"></use>
        </mask>
        <polygon id="path-7" points="14.2769231 39.2857143 21.4153846 46.4285714 21.4153846 75 14.2769231 67.8571429"></polygon>
        <mask id="mask-8" maskContentUnits="userSpaceOnUse" maskUnits="objectBoundingBox" x="0" y="0" width="7.13846154" height="35.7142857" fill="white">
            <use xlink:href="#path-7"></use>
        </mask>
        <polygon id="path-9" points="21.4153846 46.4285714 32.1230769 42.8571429 32.1230769 71.4285714 21.4153846 75"></polygon>
        <mask id="mask-10" maskContentUnits="userSpaceOnUse" maskUnits="objectBoundingBox" x="0" y="0" width="10.7076923" height="32.1428571" fill="white">
            <use xlink:href="#path-9"></use>
        </mask>
        <polygon id="path-11" points="24.9846154 35.7142857 32.1230769 42.8571429 21.4153846 46.4285714 14.2769231 39.2857143"></polygon>
        <mask id="mask-12" maskContentUnits="userSpaceOnUse" maskUnits="objectBoundingBox" x="0" y="0" width="17.8461538" height="10.7142857" fill="white">
            <use xlink:href="#path-11"></use>
        </mask>
        <polygon id="path-13" points="7.13846154 3.57142857 14.2769231 10.7142857 14.2769231 39.2857143 7.13846154 32.1428571"></polygon>
        <mask id="mask-14" maskContentUnits="userSpaceOnUse" maskUnits="objectBoundingBox" x="0" y="0" width="7.13846154" height="35.7142857" fill="white">
            <use xlink:href="#path-13"></use>
        </mask>
        <polygon id="path-15" points="14.2769231 10.7142857 24.9846154 7.14285714 24.9846154 35.7142857 14.2769231 39.2857143"></polygon>
        <mask id="mask-16" maskContentUnits="userSpaceOnUse" maskUnits="objectBoundingBox" x="0" y="0" width="10.7076923" height="32.1428571" fill="white">
            <use xlink:href="#path-15"></use>
        </mask>
        <polygon id="path-17" points="17.8461538 0 24.9846154 7.14285714 14.2769231 10.7142857 7.13846154 3.57142857"></polygon>
        <mask id="mask-18" maskContentUnits="userSpaceOnUse" maskUnits="objectBoundingBox" x="0" y="0" width="17.8461538" height="10.7142857" fill="white">
            <use xlink:href="#path-17"></use>
        </mask>
        <polygon id="path-19" points="21.4153846 46.4285714 28.5538462 53.5714286 28.5538462 67.8571429 21.4153846 60.7142857"></polygon>
        <mask id="mask-20" maskContentUnits="userSpaceOnUse" maskUnits="objectBoundingBox" x="0" y="0" width="7.13846154" height="21.4285714" fill="white">
            <use xlink:href="#path-19"></use>
        </mask>
        <polygon id="path-21" points="28.5538462 53.5714286 39.2615385 50 39.2615385 64.2857143 28.5538462 67.8571429"></polygon>
        <mask id="mask-22" maskContentUnits="userSpaceOnUse" maskUnits="objectBoundingBox" x="0" y="0" width="10.7076923" height="17.8571429" fill="white">
            <use xlink:href="#path-21"></use>
        </mask>
        <polygon id="path-23" points="32.1230769 42.8571429 39.2615385 50 28.5538462 53.5714286 21.4153846 46.4285714"></polygon>
        <mask id="mask-24" maskContentUnits="userSpaceOnUse" maskUnits="objectBoundingBox" x="0" y="0" width="17.8461538" height="10.7142857" fill="white">
            <use xlink:href="#path-23"></use>
        </mask>
    </defs>
    <g id="Page-1" stroke="none" stroke-width="1" fill="none" fill-rule="evenodd">
        <g id="Group-2">
            <rect id="Rectangle" fill="#00CACC" x="0" y="0" width="374" height="311"></rect>
            <g id="Group" transform="translate(23.000000, 23.000000)">
                <path d="M33.1652923,14.0328571 C33.1157987,13.9833331 33.0910523,13.9204766 33.0910523,13.8442857 L33.0910523,7.09 L30.8866954,7.09 C30.8105514,7.09 30.7477336,7.06523834 30.69824,7.01571429 C30.6487464,6.96619023 30.624,6.90333371 30.624,6.82714286 L30.624,6.38142857 C30.624,6.29761863 30.6487464,6.23095263 30.69824,6.18142857 C30.7477336,6.13190451 30.8105514,6.10714286 30.8866954,6.10714286 L36.3690338,6.10714286 C36.4527922,6.10714286 36.5175136,6.13190451 36.5632,6.18142857 C36.6088864,6.23095263 36.6317292,6.29761863 36.6317292,6.38142857 L36.6317292,6.82714286 C36.6317292,6.90333371 36.6069828,6.96619023 36.5574892,7.01571429 C36.5079956,7.06523834 36.4451778,7.09 36.3690338,7.09 L34.1760985,7.09 L34.1760985,13.8442857 C34.1760985,13.9204766 34.1494485,13.9833331 34.0961477,14.0328571 C34.0428469,14.0823812 33.9781255,14.1071429 33.9019815,14.1071429 L33.3537477,14.1071429 C33.2776037,14.1071429 33.2147859,14.0823812 33.1652923,14.0328571 Z M37.4045867,14.0328571 C37.3550931,13.9833331 37.3303467,13.9204766 37.3303467,13.8442857 L37.3303467,6.25571429 C37.3303467,6.17190434 37.3550931,6.10714309 37.4045867,6.06142857 C37.4540803,6.01571406 37.5168981,5.99285714 37.5930421,5.99285714 L38.1184328,5.99285714 C38.2021912,5.99285714 38.2669126,6.01571406 38.312599,6.06142857 C38.3582854,6.10714309 38.3811282,6.17190434 38.3811282,6.25571429 L38.3811282,8.91857143 C38.6019457,8.63666526 38.8627349,8.42142931 39.1635036,8.27285714 C39.4642723,8.12428497 39.8354686,8.05 40.2771036,8.05 C41.0080857,8.05 41.5772534,8.28428337 41.9846236,8.75285714 C42.3919938,9.22143091 42.5956759,9.84047234 42.5956759,10.61 L42.5956759,13.8442857 C42.5956759,13.9204766 42.5709295,13.9833331 42.5214359,14.0328571 C42.4719423,14.0823812 42.4091245,14.1071429 42.3329805,14.1071429 L41.7961682,14.1071429 C41.7200242,14.1071429 41.6572064,14.0823812 41.6077128,14.0328571 C41.5582193,13.9833331 41.5334728,13.9204766 41.5334728,13.8442857 L41.5334728,10.6785714 C41.5334728,10.1299973 41.4002229,9.70333486 41.133719,9.39857143 C40.8672151,9.093808 40.4826938,8.94142857 39.9801436,8.94142857 C39.4928222,8.94142857 39.1044938,9.09571274 38.8151467,9.40428571 C38.5257996,9.71285869 38.3811282,10.1376163 38.3811282,10.6785714 L38.3811282,13.8442857 C38.3811282,13.9204766 38.3563818,13.9833331 38.3068882,14.0328571 C38.2573946,14.0823812 38.1945768,14.1071429 38.1184328,14.1071429 L37.5930421,14.1071429 C37.5168981,14.1071429 37.4540803,14.0823812 37.4045867,14.0328571 Z M44.5049764,13.4957143 C44.0404982,13.0119023 43.7854197,12.3509566 43.7397334,11.5128571 L43.7283118,11.1242857 L43.7397334,10.7471429 C43.7854197,9.9242816 44.0404982,9.26905006 44.5049764,8.78142857 C44.9694547,8.29380709 45.5900187,8.05 46.3666872,8.05 C47.2042709,8.05 47.8533885,8.316664 48.3140595,8.85 C48.7747305,9.383336 49.0050626,10.1071383 49.0050626,11.0214286 L49.0050626,11.2271429 C49.0050626,11.3033337 48.9803162,11.3661902 48.9308226,11.4157143 C48.881329,11.4652383 48.8185112,11.49 48.7423672,11.49 L44.7790934,11.49 L44.7790934,11.5928571 C44.8019366,12.0880977 44.9542222,12.5109506 45.2359549,12.8614286 C45.5176876,13.2119065 45.8907874,13.3871429 46.3552657,13.3871429 C46.7131423,13.3871429 47.0043886,13.3166674 47.2290134,13.1757143 C47.4536381,13.0347612 47.6230559,12.888096 47.7372718,12.7357143 C47.8058014,12.6442853 47.8591014,12.5890477 47.8971734,12.57 C47.9352453,12.5509523 47.9999668,12.5414286 48.0913395,12.5414286 L48.5938872,12.5414286 C48.6624168,12.5414286 48.7214275,12.560476 48.7709211,12.5985714 C48.8204146,12.6366669 48.8451611,12.6861902 48.8451611,12.7471429 C48.8451611,12.9147627 48.7423682,13.1166655 48.5367795,13.3528571 C48.3311908,13.5890488 48.0399445,13.7928563 47.6630318,13.9642857 C47.2861192,14.1357151 46.8540086,14.2214286 46.3666872,14.2214286 C45.5900187,14.2214286 44.9694547,13.9795262 44.5049764,13.4957143 Z M47.9657026,10.7128571 L47.9657026,10.6785714 C47.9657026,10.1452354 47.8210312,9.71095406 47.5316841,9.37571429 C47.242337,9.04047451 46.8540086,8.87285714 46.3666872,8.87285714 C45.8717514,8.87285714 45.483423,9.04047451 45.2016903,9.37571429 C44.9199576,9.71095406 44.7790934,10.1452354 44.7790934,10.6785714 L44.7790934,10.7128571 L47.9657026,10.7128571 Z M31.4120862,24.2114286 C31.3663998,24.1619045 31.3435569,24.099048 31.3435569,24.0228571 L31.3435569,16.56 C31.3435569,16.4761901 31.3663998,16.4095241 31.4120862,16.36 C31.4577725,16.3104759 31.5186868,16.2857143 31.5948308,16.2857143 L34.1760985,16.2857143 C35.3258724,16.2857143 36.1558292,16.5428546 36.6659938,17.0571429 C37.1761584,17.5714311 37.4388512,18.3466615 37.45408,19.3828571 C37.4616944,19.6038106 37.4655015,19.9009505 37.4655015,20.2742857 C37.4655015,20.6476209 37.4616944,20.9485703 37.45408,21.1771429 C37.4388512,21.900956 37.3227334,22.4895215 37.1057231,22.9428571 C36.8887128,23.3961927 36.5479736,23.7333322 36.0834954,23.9542857 C35.6190172,24.1752392 35.0022603,24.2857143 34.2332062,24.2857143 L31.5948308,24.2857143 C31.5186868,24.2857143 31.4577725,24.2609526 31.4120862,24.2114286 Z M34.1760985,23.3371429 C34.7091063,23.3371429 35.1336025,23.2628579 35.4496,23.1142857 C35.7655975,22.9657135 35.994026,22.7333349 36.1348923,22.4171429 C36.2757587,22.1009508 36.3538051,21.6723837 36.3690338,21.1314286 C36.3842626,20.6742834 36.3918769,20.388572 36.3918769,20.2742857 C36.3918769,20.1523803 36.3842626,19.8704784 36.3690338,19.4285714 C36.3538051,18.6666629 36.1729658,18.1085732 35.8265108,17.7542857 C35.4800557,17.3999982 34.9108881,17.2228571 34.1189908,17.2228571 L32.4171815,17.2228571 L32.4171815,23.3371429 L34.1760985,23.3371429 Z M39.426199,24.1714286 C39.1102015,24.0190469 38.8589302,23.8114299 38.6723775,23.5485714 C38.4858247,23.285713 38.3925498,22.9942873 38.3925498,22.6742857 C38.3925498,22.1714261 38.5981354,21.7600016 39.0093128,21.44 C39.4204903,21.1199984 39.9801401,20.9066672 40.688279,20.8 L42.4015098,20.56 L42.4015098,20.2285714 C42.4015098,19.4438056 41.9484599,19.0514286 41.0423467,19.0514286 C40.6920844,19.0514286 40.410356,19.1219041 40.1971528,19.2628571 C39.9839497,19.4038102 39.8278569,19.5695229 39.7288698,19.76 C39.6984122,19.8361909 39.6660515,19.8876189 39.6317867,19.9142857 C39.5975219,19.9409525 39.5499326,19.9542857 39.4890175,19.9542857 L39.0435775,19.9542857 C38.9750479,19.9542857 38.9160372,19.9295241 38.8665436,19.88 C38.81705,19.8304759 38.7923036,19.7714289 38.7923036,19.7028571 C38.7923036,19.5276182 38.8741571,19.3238107 39.0378667,19.0914286 C39.2015762,18.8590465 39.4547511,18.6571437 39.797399,18.4857143 C40.1400469,18.3142849 40.5588324,18.2285714 41.0537682,18.2285714 C41.9065807,18.2285714 42.5176269,18.4266647 42.8869251,18.8228571 C43.2562234,19.2190496 43.4408698,19.7142827 43.4408698,20.3085714 L43.4408698,24.0228571 C43.4408698,24.099048 43.4161233,24.1619045 43.3666298,24.2114286 C43.3171362,24.2609526 43.2543183,24.2857143 43.1781744,24.2857143 L42.6756267,24.2857143 C42.5994827,24.2857143 42.5385684,24.2609526 42.4928821,24.2114286 C42.4471957,24.1619045 42.4243528,24.099048 42.4243528,24.0228571 L42.4243528,23.52 C42.2568361,23.7714298 42.013179,23.9809515 41.6933744,24.1485714 C41.3735697,24.3161913 40.9623984,24.4 40.4598482,24.4 C40.0867428,24.4 39.7421965,24.3238103 39.426199,24.1714286 Z M41.9218051,23.0742857 C42.2416098,22.746665 42.4015098,22.2704793 42.4015098,21.6457143 L42.4015098,21.3257143 L41.0651898,21.52 C40.5169532,21.5961909 40.1019748,21.7257134 39.8202421,21.9085714 C39.5385094,22.0914295 39.3976451,22.3199986 39.3976451,22.5942857 C39.3976451,22.9066682 39.5251844,23.1466658 39.7802667,23.3142857 C40.035349,23.4819056 40.3380167,23.5657143 40.688279,23.5657143 C41.1908292,23.5657143 41.6020005,23.4019064 41.9218051,23.0742857 Z M45.3159057,22.2857143 L45.3159057,19.2228571 L44.4136041,19.2228571 C44.3374602,19.2228571 44.2765459,19.2000002 44.2308595,19.1542857 C44.1851731,19.1085712 44.1623303,19.0476194 44.1623303,18.9714286 L44.1623303,18.6057143 C44.1623303,18.5295234 44.1851731,18.4666669 44.2308595,18.4171429 C44.2765459,18.3676188 44.3374602,18.3428571 44.4136041,18.3428571 L45.3159057,18.3428571 L45.3159057,16.4342857 C45.3159057,16.3580949 45.3387485,16.2952383 45.3844349,16.2457143 C45.4301213,16.1961902 45.4910355,16.1714286 45.5671795,16.1714286 L46.0697272,16.1714286 C46.1458712,16.1714286 46.208689,16.1961902 46.2581826,16.2457143 C46.3076762,16.2952383 46.3324226,16.3580949 46.3324226,16.4342857 L46.3324226,18.3428571 L47.7486934,18.3428571 C47.8248373,18.3428571 47.8876552,18.3676188 47.9371487,18.4171429 C47.9866423,18.4666669 48.0113887,18.5295234 48.0113887,18.6057143 L48.0113887,18.9714286 C48.0113887,19.0476194 47.9866423,19.1085712 47.9371487,19.1542857 C47.8876552,19.2000002 47.8248373,19.2228571 47.7486934,19.2228571 L46.3324226,19.2228571 L46.3324226,22.2057143 C46.3324226,22.5942877 46.3952404,22.8876181 46.520878,23.0857143 C46.6465155,23.2838105 46.861619,23.3828571 47.1661949,23.3828571 L47.8629087,23.3828571 C47.9390527,23.3828571 47.999967,23.4076188 48.0456534,23.4571429 C48.0913397,23.5066669 48.1141826,23.5695234 48.1141826,23.6457143 L48.1141826,24.0228571 C48.1141826,24.099048 48.0913397,24.1619045 48.0456534,24.2114286 C47.999967,24.2609526 47.9390527,24.2857143 47.8629087,24.2857143 L47.0862441,24.2857143 C45.9060126,24.2857143 45.3159057,23.6190543 45.3159057,22.2857143 Z M49.606597,24.1714286 C49.2905995,24.0190469 49.0393282,23.8114299 48.8527754,23.5485714 C48.6662227,23.285713 48.5729477,22.9942873 48.5729477,22.6742857 C48.5729477,22.1714261 48.7785334,21.7600016 49.1897108,21.44 C49.6008883,21.1199984 50.160538,20.9066672 50.868677,20.8 L52.5819077,20.56 L52.5819077,20.2285714 C52.5819077,19.4438056 52.1288579,19.0514286 51.2227447,19.0514286 C50.8724824,19.0514286 50.5907539,19.1219041 50.3775508,19.2628571 C50.1643477,19.4038102 50.0082549,19.5695229 49.9092677,19.76 C49.8788101,19.8361909 49.8464494,19.8876189 49.8121847,19.9142857 C49.7779199,19.9409525 49.7303306,19.9542857 49.6694154,19.9542857 L49.2239754,19.9542857 C49.1554459,19.9542857 49.0964352,19.9295241 49.0469416,19.88 C48.997448,19.8304759 48.9727016,19.7714289 48.9727016,19.7028571 C48.9727016,19.5276182 49.0545551,19.3238107 49.2182647,19.0914286 C49.3819742,18.8590465 49.6351491,18.6571437 49.977797,18.4857143 C50.3204448,18.3142849 50.7392304,18.2285714 51.2341662,18.2285714 C52.0869787,18.2285714 52.6980249,18.4266647 53.0673231,18.8228571 C53.4366214,19.2190496 53.6212677,19.7142827 53.6212677,20.3085714 L53.6212677,24.0228571 C53.6212677,24.099048 53.5965213,24.1619045 53.5470277,24.2114286 C53.4975342,24.2609526 53.4347163,24.2857143 53.3585724,24.2857143 L52.8560247,24.2857143 C52.7798807,24.2857143 52.7189664,24.2609526 52.67328,24.2114286 C52.6275937,24.1619045 52.6047508,24.099048 52.6047508,24.0228571 L52.6047508,23.52 C52.4372341,23.7714298 52.193577,23.9809515 51.8737724,24.1485714 C51.5539677,24.3161913 51.1427964,24.4 50.6402462,24.4 C50.2671407,24.4 49.9225944,24.3238103 49.606597,24.1714286 Z M52.1022031,23.0742857 C52.4220078,22.746665 52.5819077,22.2704793 52.5819077,21.6457143 L52.5819077,21.3257143 L51.2455877,21.52 C50.6973511,21.5961909 50.2823727,21.7257134 50.00064,21.9085714 C49.7189074,22.0914295 49.5780431,22.3199986 49.5780431,22.5942857 C49.5780431,22.9066682 49.7055824,23.1466658 49.9606647,23.3142857 C50.215747,23.4819056 50.5184147,23.5657143 50.868677,23.5657143 C51.3712272,23.5657143 51.7823984,23.4019064 52.1022031,23.0742857 Z M31.4120862,34.39 C31.3663998,34.3404759 31.3435569,34.2776194 31.3435569,34.2014286 L31.3435569,26.7385714 C31.3435569,26.6547615 31.3663998,26.5880955 31.4120862,26.5385714 C31.4577725,26.4890474 31.5186868,26.4642857 31.5948308,26.4642857 L34.48448,26.4642857 C35.3449069,26.4642857 36.0206745,26.6719027 36.5118031,27.0871429 C37.0029317,27.502383 37.2484923,28.1061865 37.2484923,28.8985714 C37.2484923,29.6909563 37.0029317,30.2928551 36.5118031,30.7042857 C36.0206745,31.1157163 35.3449069,31.3214286 34.48448,31.3214286 L32.4286031,31.3214286 L32.4286031,34.2014286 C32.4286031,34.2776194 32.4038567,34.3404759 32.3543631,34.39 C32.3048695,34.4395241 32.2420517,34.4642857 32.1659077,34.4642857 L31.5948308,34.4642857 C31.5186868,34.4642857 31.4577725,34.4395241 31.4120862,34.39 Z M34.4273723,30.3957143 C35.5771463,30.3957143 36.1520246,29.8966717 36.1520246,28.8985714 C36.1520246,28.4109499 36.0092568,28.0376203 35.7237169,27.7785714 C35.438177,27.5195225 35.0060665,27.39 34.4273723,27.39 L32.4286031,27.39 L32.4286031,30.3957143 L34.4273723,30.3957143 Z M38.3639959,34.39 C38.3145023,34.3404759 38.2897559,34.2776194 38.2897559,34.2014286 L38.2897559,26.6128571 C38.2897559,26.5290472 38.3145023,26.4642859 38.3639959,26.4185714 C38.4134895,26.3728569 38.4763073,26.35 38.5524513,26.35 L39.054999,26.35 C39.131143,26.35 39.1939608,26.3747617 39.2434544,26.4242857 C39.292948,26.4738098 39.3176944,26.5366663 39.3176944,26.6128571 L39.3176944,34.2014286 C39.3176944,34.2776194 39.292948,34.3404759 39.2434544,34.39 C39.1939608,34.4395241 39.131143,34.4642857 39.054999,34.4642857 L38.5524513,34.4642857 C38.4763073,34.4642857 38.4134895,34.4395241 38.3639959,34.39 Z M41.4040287,34.35 C41.0880313,34.1976183 40.8367599,33.9900013 40.6502072,33.7271429 C40.4636545,33.4642844 40.3703795,33.1728587 40.3703795,32.8528571 C40.3703795,32.3499975 40.5759652,31.938573 40.9871426,31.6185714 C41.39832,31.2985698 41.9579698,31.0852386 42.6661087,30.9785714 L44.3793395,30.7385714 L44.3793395,30.4071429 C44.3793395,29.622377 43.9262897,29.23 43.0201764,29.23 C42.6699142,29.23 42.3881857,29.3004755 42.1749826,29.4414286 C41.9617795,29.5823817 41.8056867,29.7480943 41.7066995,29.9385714 C41.6762419,30.0147623 41.6438812,30.0661903 41.6096164,30.0928571 C41.5753517,30.1195239 41.5277624,30.1328571 41.4668472,30.1328571 L41.0214072,30.1328571 C40.9528776,30.1328571 40.8938669,30.1080955 40.8443734,30.0585714 C40.7948798,30.0090474 40.7701334,29.9500003 40.7701334,29.8814286 C40.7701334,29.7061896 40.8519869,29.5023821 41.0156964,29.27 C41.179406,29.0376179 41.4325809,28.8357151 41.7752287,28.6642857 C42.1178766,28.4928563 42.5366622,28.4071429 43.031598,28.4071429 C43.8844104,28.4071429 44.4954566,28.6052361 44.8647549,29.0014286 C45.2340532,29.397621 45.4186995,29.8928542 45.4186995,30.4871429 L45.4186995,34.2014286 C45.4186995,34.2776194 45.3939531,34.3404759 45.3444595,34.39 C45.2949659,34.4395241 45.2321481,34.4642857 45.1560041,34.4642857 L44.6534564,34.4642857 C44.5773125,34.4642857 44.5163982,34.4395241 44.4707118,34.39 C44.4250254,34.3404759 44.4021826,34.2776194 44.4021826,34.2014286 L44.4021826,33.6985714 C44.2346659,33.9500013 43.9910088,34.159523 43.6712041,34.3271429 C43.3513995,34.4947627 42.9402282,34.5785714 42.437678,34.5785714 C42.0645725,34.5785714 41.7200262,34.5023817 41.4040287,34.35 Z M43.8996349,33.2528571 C44.2194396,32.9252365 44.3793395,32.4490507 44.3793395,31.8242857 L44.3793395,31.5042857 L43.0430195,31.6985714 C42.4947829,31.7747623 42.0798045,31.9042848 41.7980718,32.0871429 C41.5163391,32.2700009 41.3754749,32.4985701 41.3754749,32.7728571 C41.3754749,33.0852397 41.5030141,33.3252373 41.7580964,33.4928571 C42.0131787,33.660477 42.3158465,33.7442857 42.6661087,33.7442857 C43.168659,33.7442857 43.5798302,33.5804778 43.8996349,33.2528571 Z M47.305157,33.8871429 C46.8482931,33.4261882 46.6084432,32.7804803 46.5856,31.95 L46.5741785,31.4928571 L46.5856,31.0357143 C46.6084432,30.2052339 46.8482931,29.5595261 47.305157,29.0985714 C47.7620208,28.6376167 48.3978134,28.4071429 49.2125539,28.4071429 C49.7607905,28.4071429 50.2233582,28.5042847 50.6002708,28.6985714 C50.9771835,28.8928581 51.2589119,29.1347605 51.4454647,29.4242857 C51.6320174,29.713811 51.7329066,30.0033319 51.7481354,30.2928571 C51.7557498,30.3614289 51.7310034,30.4223807 51.6738954,30.4757143 C51.6167874,30.5290479 51.5539696,30.5557143 51.48544,30.5557143 L50.9828924,30.5557143 C50.9067484,30.5557143 50.8496413,30.5385716 50.8115693,30.5042857 C50.7734973,30.4699998 50.7354259,30.4071433 50.6973539,30.3157143 C50.5602947,29.9423791 50.3718412,29.6776198 50.1319877,29.5214286 C49.8921342,29.3652373 49.5894665,29.2871429 49.2239754,29.2871429 C48.7442684,29.2871429 48.3635543,29.4357128 48.0818216,29.7328571 C47.8000889,30.0300015 47.6478032,30.4833303 47.62496,31.0928571 L47.6135385,31.4928571 L47.62496,31.8928571 C47.6478032,32.502384 47.8000889,32.9557128 48.0818216,33.2528571 C48.3635543,33.5500015 48.7442684,33.6985714 49.2239754,33.6985714 C49.5970809,33.6985714 49.9016522,33.620477 50.1376985,33.4642857 C50.3737448,33.3080945 50.5602947,33.0433352 50.6973539,32.67 C50.7354259,32.578571 50.7734973,32.5157145 50.8115693,32.4814286 C50.8496413,32.4471427 50.9067484,32.43 50.9828924,32.43 L51.48544,32.43 C51.5539696,32.43 51.6167874,32.4566664 51.6738954,32.51 C51.7310034,32.5633336 51.7557498,32.6242854 51.7481354,32.6928571 C51.7329066,32.9747633 51.6320174,33.2604747 51.4454647,33.55 C51.2589119,33.8395253 50.9771835,34.0833323 50.6002708,34.2814286 C50.2233582,34.4795248 49.7607905,34.5785714 49.2125539,34.5785714 C48.3978134,34.5785714 47.7620208,34.3480975 47.305157,33.8871429 Z M53.3718975,33.8528571 C52.9074193,33.3690452 52.6523408,32.7080994 52.6066544,31.87 L52.5952329,31.4814286 L52.6066544,31.1042857 C52.6523408,30.2814245 52.9074193,29.6261929 53.3718975,29.1385714 C53.8363757,28.6509499 54.4569398,28.4071429 55.2336083,28.4071429 C56.0711919,28.4071429 56.7203095,28.6738069 57.1809806,29.2071429 C57.6416516,29.7404789 57.8719836,30.4642811 57.8719836,31.3785714 L57.8719836,31.5842857 C57.8719836,31.6604766 57.8472372,31.7233331 57.7977436,31.7728571 C57.7482501,31.8223812 57.6854322,31.8471429 57.6092883,31.8471429 L53.6460144,31.8471429 L53.6460144,31.95 C53.6688576,32.4452406 53.8211433,32.8680935 54.102876,33.2185714 C54.3846086,33.5690494 54.7577085,33.7442857 55.2221867,33.7442857 C55.5800634,33.7442857 55.8713097,33.6738102 56.0959344,33.5328571 C56.3205591,33.3919041 56.4899769,33.2452389 56.6041929,33.0928571 C56.6727225,33.0014281 56.7260224,32.9461906 56.7640944,32.9271429 C56.8021664,32.9080951 56.8668878,32.8985714 56.9582606,32.8985714 L57.4608083,32.8985714 C57.5293378,32.8985714 57.5883485,32.9176189 57.6378421,32.9557143 C57.6873357,32.9938097 57.7120821,33.043333 57.7120821,33.1042857 C57.7120821,33.2719056 57.6092893,33.4738083 57.4037006,33.71 C57.1981118,33.9461917 56.9068655,34.1499991 56.5299529,34.3214286 C56.1530402,34.492858 55.7209297,34.5785714 55.2336083,34.5785714 C54.4569398,34.5785714 53.8363757,34.3366691 53.3718975,33.8528571 Z M56.8326236,31.07 L56.8326236,31.0357143 C56.8326236,30.5023783 56.6879523,30.0680969 56.3986052,29.7328571 C56.1092581,29.3976174 55.7209297,29.23 55.2336083,29.23 C54.7386725,29.23 54.350344,29.3976174 54.0686113,29.7328571 C53.7868786,30.0680969 53.6460144,30.5023783 53.6460144,31.0357143 L53.6460144,31.07 L56.8326236,31.07 Z" id="The-Data-Place" fill="#FFFFFF"></path>
                <use id="Rectangle-7" stroke="#FFFFFF" mask="url(#mask-2)" fill="#4FD5D6" xlink:href="#path-1"></use>
                <use id="Rectangle-7" stroke="#FFFFFF" mask="url(#mask-4)" fill="#00CBCC" xlink:href="#path-3"></use>
                <use id="Rectangle-8" stroke="#FFFFFF" mask="url(#mask-6)" fill="#00CBCC" xlink:href="#path-5"></use>
                <use id="Rectangle-7" stroke="#FFFFFF" mask="url(#mask-8)" fill="#4FD5D6" xlink:href="#path-7"></use>
                <use id="Rectangle-7" stroke="#FFFFFF" mask="url(#mask-10)" fill="#00CBCC" xlink:href="#path-9"></use>
                <use id="Rectangle-8" stroke="#FFFFFF" mask="url(#mask-12)" fill="#00CBCC" xlink:href="#path-11"></use>
                <use id="Rectangle-7" stroke="#FFFFFF" mask="url(#mask-14)" fill="#4FD5D6" xlink:href="#path-13"></use>
                <use id="Rectangle-7" stroke="#FFFFFF" mask="url(#mask-16)" fill="#00CBCC" xlink:href="#path-15"></use>
                <use id="Rectangle-8" stroke="#FFFFFF" mask="url(#mask-18)" fill="#00CBCC" xlink:href="#path-17"></use>
                <use id="Rectangle-7" stroke="#FFFFFF" mask="url(#mask-20)" fill="#4FD5D6" xlink:href="#path-19"></use>
                <use id="Rectangle-7" stroke="#FFFFFF" mask="url(#mask-22)" fill="#00CBCC" xlink:href="#path-21"></use>
                <use id="Rectangle-8" stroke="#FFFFFF" mask="url(#mask-24)" fill="#00CBCC" xlink:href="#path-23"></use>
            </g>
            <rect id="Rectangle-2" fill="#FFFFFF" x="35" y="141" width="305" height="30"></rect>
            <path d="M46.37,161.68 C45.5633293,161.333332 44.9500021,160.876669 44.53,160.31 C44.1099979,159.743331 43.8866668,159.133337 43.86,158.48 C43.86,158.373333 43.8999996,158.28 43.98,158.2 C44.0600004,158.12 44.1599994,158.08 44.28,158.08 L45.26,158.08 C45.5000012,158.08 45.6666662,158.213332 45.76,158.48 C45.8800006,159.040003 46.2233305,159.523331 46.79,159.93 C47.3566695,160.336669 48.1666614,160.54 49.22,160.54 C50.353339,160.54 51.1999972,160.340002 51.76,159.94 C52.3200028,159.539998 52.6,158.98667 52.6,158.28 C52.6,157.826664 52.4633347,157.453335 52.19,157.16 C51.9166653,156.866665 51.5100027,156.610001 50.97,156.39 C50.4299973,156.169999 49.6200054,155.900002 48.54,155.58 C47.5133282,155.286665 46.6966697,154.973335 46.09,154.64 C45.4833303,154.306665 45.0266682,153.896669 44.72,153.41 C44.4133318,152.923331 44.26,152.30667 44.26,151.56 C44.26,150.839996 44.4533314,150.196669 44.84,149.63 C45.2266686,149.063331 45.786663,148.616668 46.52,148.29 C47.253337,147.963332 48.119995,147.8 49.12,147.8 C50.1600052,147.8 51.0499963,147.983332 51.79,148.35 C52.5300037,148.716669 53.0933314,149.176664 53.48,149.73 C53.8666686,150.283336 54.0733332,150.839997 54.1,151.4 C54.1,151.520001 54.0600004,151.62 53.98,151.7 C53.8999996,151.78 53.8000006,151.82 53.68,151.82 L52.68,151.82 C52.5733328,151.82 52.4733338,151.786667 52.38,151.72 C52.2866662,151.653333 52.2200002,151.553334 52.18,151.42 C52.0999996,150.846664 51.7800028,150.373335 51.22,150 C50.6599972,149.626665 49.9600042,149.44 49.12,149.44 C48.2133288,149.44 47.493336,149.616665 46.96,149.97 C46.426664,150.323335 46.16,150.846663 46.16,151.54 C46.16,152.006669 46.2833321,152.386665 46.53,152.68 C46.7766679,152.973335 47.1566641,153.233332 47.67,153.46 C48.1833359,153.686668 48.9333284,153.946665 49.92,154.24 C51.053339,154.560002 51.9433301,154.879998 52.59,155.2 C53.2366699,155.520002 53.7199984,155.916664 54.04,156.39 C54.3600016,156.863336 54.52,157.47333 54.52,158.22 C54.52,159.47334 54.0433381,160.449996 53.09,161.15 C52.1366619,161.850004 50.8466748,162.2 49.22,162.2 C48.1266612,162.2 47.1766707,162.026668 46.37,161.68 Z M57.3433334,160.93 C56.529996,160.083329 56.0833338,158.926674 56.0033334,157.46 L55.9833334,156.78 L56.0033334,156.12 C56.0833338,154.679993 56.529996,153.533338 57.3433334,152.68 C58.1566708,151.826662 59.2433266,151.4 60.6033334,151.4 C62.0700074,151.4 63.2066627,151.866662 64.0133334,152.8 C64.8200041,153.733338 65.2233334,154.999992 65.2233334,156.6 L65.2233334,156.96 C65.2233334,157.093334 65.1800005,157.203333 65.0933334,157.29 C65.0066663,157.376667 64.8966674,157.42 64.7633334,157.42 L57.8233334,157.42 L57.8233334,157.6 C57.8633336,158.466671 58.1299976,159.206664 58.6233334,159.82 C59.1166692,160.433336 59.769996,160.74 60.5833334,160.74 C61.2100032,160.74 61.7199981,160.616668 62.1133334,160.37 C62.5066687,160.123332 62.8033324,159.866668 63.0033334,159.6 C63.123334,159.439999 63.2166664,159.343333 63.2833334,159.31 C63.3500004,159.276666 63.4633326,159.26 63.6233334,159.26 L64.5033334,159.26 C64.623334,159.26 64.7266663,159.293333 64.8133334,159.36 C64.9000005,159.426667 64.9433334,159.513333 64.9433334,159.62 C64.9433334,159.913335 64.7633352,160.266665 64.4033334,160.68 C64.0433316,161.093335 63.5333367,161.449998 62.8733334,161.75 C62.2133301,162.050002 61.456671,162.2 60.6033334,162.2 C59.2433266,162.2 58.1566708,161.776671 57.3433334,160.93 Z M63.4033334,156.06 L63.4033334,156 C63.4033334,155.066662 63.1500026,154.30667 62.6433334,153.72 C62.1366642,153.13333 61.456671,152.84 60.6033334,152.84 C59.7366624,152.84 59.0566692,153.13333 58.5633334,153.72 C58.0699976,154.30667 57.8233334,155.066662 57.8233334,156 L57.8233334,156.06 L63.4033334,156.06 Z M68.3166667,161.8 C67.7633306,161.533332 67.323335,161.170002 66.9966667,160.71 C66.6699984,160.249998 66.5066667,159.740003 66.5066667,159.18 C66.5066667,158.299996 66.8666631,157.580003 67.5866667,157.02 C68.3066703,156.459997 69.2866605,156.086668 70.5266667,155.9 L73.5266667,155.48 L73.5266667,154.9 C73.5266667,153.52666 72.7333413,152.84 71.1466667,152.84 C70.5333303,152.84 70.0400019,152.963332 69.6666667,153.21 C69.2933315,153.456668 69.0200009,153.746665 68.8466667,154.08 C68.7933331,154.213334 68.736667,154.303333 68.6766667,154.35 C68.6166664,154.396667 68.5333339,154.42 68.4266667,154.42 L67.6466667,154.42 C67.5266661,154.42 67.4233338,154.376667 67.3366667,154.29 C67.2499996,154.203333 67.2066667,154.100001 67.2066667,153.98 C67.2066667,153.673332 67.3499986,153.316669 67.6366667,152.91 C67.9233348,152.503331 68.3666637,152.150001 68.9666667,151.85 C69.5666697,151.549999 70.2999957,151.4 71.1666667,151.4 C72.6600075,151.4 73.7299968,151.746663 74.3766667,152.44 C75.0233366,153.133337 75.3466667,153.999995 75.3466667,155.04 L75.3466667,161.54 C75.3466667,161.673334 75.3033338,161.783333 75.2166667,161.87 C75.1299996,161.956667 75.0200007,162 74.8866667,162 L74.0066667,162 C73.8733327,162 73.7666671,161.956667 73.6866667,161.87 C73.6066663,161.783333 73.5666667,161.673334 73.5666667,161.54 L73.5666667,160.66 C73.2733319,161.100002 72.8466695,161.466665 72.2866667,161.76 C71.7266639,162.053335 71.0066711,162.2 70.1266667,162.2 C69.4733301,162.2 68.8700028,162.066668 68.3166667,161.8 Z M72.6866667,159.88 C73.2466695,159.306664 73.5266667,158.473339 73.5266667,157.38 L73.5266667,156.82 L71.1866667,157.16 C70.2266619,157.293334 69.5000025,157.519998 69.0066667,157.84 C68.5133309,158.160002 68.2666667,158.559998 68.2666667,159.04 C68.2666667,159.586669 68.4899978,160.006665 68.9366667,160.3 C69.3833356,160.593335 69.9133303,160.74 70.5266667,160.74 C71.4066711,160.74 72.1266639,160.453336 72.6866667,159.88 Z M77.9600001,161.87 C77.873333,161.783333 77.8300001,161.673334 77.8300001,161.54 L77.8300001,152.08 C77.8300001,151.946666 77.873333,151.833334 77.9600001,151.74 C78.0466672,151.646666 78.1566661,151.6 78.2900001,151.6 L79.1300001,151.6 C79.2766675,151.6 79.393333,151.643333 79.4800001,151.73 C79.5666672,151.816667 79.6100001,151.933333 79.6100001,152.08 L79.6100001,152.96 C80.1566695,152.053329 81.0833269,151.6 82.3900001,151.6 L83.1700001,151.6 C83.3166675,151.6 83.4299997,151.64 83.5100001,151.72 C83.5900005,151.8 83.6300001,151.913333 83.6300001,152.06 L83.6300001,152.8 C83.6300001,152.933334 83.5900005,153.043333 83.5100001,153.13 C83.4299997,153.216667 83.3166675,153.26 83.1700001,153.26 L82.0300001,153.26 C81.2966631,153.26 80.7200022,153.473331 80.3000001,153.9 C79.879998,154.326669 79.6700001,154.906663 79.6700001,155.64 L79.6700001,161.54 C79.6700001,161.673334 79.6233339,161.783333 79.5300001,161.87 C79.4366663,161.956667 79.3233341,162 79.1900001,162 L78.2900001,162 C78.1566661,162 78.0466672,161.956667 77.9600001,161.87 Z M85.5533335,160.99 C84.7533295,160.183329 84.3333337,159.053341 84.2933335,157.6 L84.2733335,156.8 L84.2933335,156 C84.3333337,154.546659 84.7533295,153.416671 85.5533335,152.61 C86.3533375,151.803329 87.4666597,151.4 88.8933335,151.4 C89.8533383,151.4 90.6633302,151.569998 91.3233335,151.91 C91.9833368,152.250002 92.4766652,152.673331 92.8033335,153.18 C93.1300018,153.686669 93.3066667,154.193331 93.3333335,154.7 C93.3466669,154.820001 93.303334,154.926666 93.2033335,155.02 C93.103333,155.113334 92.9933341,155.16 92.8733335,155.16 L91.9933335,155.16 C91.8599995,155.16 91.7600005,155.13 91.6933335,155.07 C91.6266665,155.01 91.5600005,154.900001 91.4933335,154.74 C91.2533323,154.086663 90.9233356,153.623335 90.5033335,153.35 C90.0833314,153.076665 89.5533367,152.94 88.9133335,152.94 C88.0733293,152.94 87.4066693,153.199997 86.9133335,153.72 C86.4199977,154.240003 86.1533337,155.033328 86.1133335,156.1 L86.0933335,156.8 L86.1133335,157.5 C86.1533337,158.566672 86.4199977,159.359997 86.9133335,159.88 C87.4066693,160.400003 88.0733293,160.66 88.9133335,160.66 C89.5666701,160.66 90.0999981,160.523335 90.5133335,160.25 C90.9266689,159.976665 91.2533323,159.513337 91.4933335,158.86 C91.5600005,158.699999 91.6266665,158.59 91.6933335,158.53 C91.7600005,158.47 91.8599995,158.44 91.9933335,158.44 L92.8733335,158.44 C92.9933341,158.44 93.103333,158.486666 93.2033335,158.58 C93.303334,158.673334 93.3466669,158.779999 93.3333335,158.9 C93.3066667,159.393336 93.1300018,159.893331 92.8033335,160.4 C92.4766652,160.906669 91.9833368,161.333332 91.3233335,161.68 C90.6633302,162.026668 89.8533383,162.2 88.8933335,162.2 C87.4666597,162.2 86.3533375,161.796671 85.5533335,160.99 Z M95.4666669,161.87 C95.3799998,161.783333 95.3366669,161.673334 95.3366669,161.54 L95.3366669,148.26 C95.3366669,148.113333 95.3799998,148 95.4666669,147.92 C95.553334,147.84 95.6633329,147.8 95.7966669,147.8 L96.7166669,147.8 C96.8633343,147.8 96.9766665,147.84 97.0566669,147.92 C97.1366673,148 97.1766669,148.113333 97.1766669,148.26 L97.1766669,152.92 C97.5633355,152.426664 98.0199976,152.050001 98.5466669,151.79 C99.0733362,151.529999 99.7233297,151.4 100.496667,151.4 C101.776673,151.4 102.77333,151.809996 103.486667,152.63 C104.200004,153.450004 104.556667,154.533327 104.556667,155.88 L104.556667,161.54 C104.556667,161.673334 104.513334,161.783333 104.426667,161.87 C104.34,161.956667 104.230001,162 104.096667,162 L103.156667,162 C103.023333,162 102.913334,161.956667 102.826667,161.87 C102.74,161.783333 102.696667,161.673334 102.696667,161.54 L102.696667,156 C102.696667,155.039995 102.463336,154.293336 101.996667,153.76 C101.529998,153.226664 100.856671,152.96 99.9766669,152.96 C99.1233293,152.96 98.4433361,153.229997 97.9366669,153.77 C97.4299977,154.310003 97.1766669,155.053329 97.1766669,156 L97.1766669,161.54 C97.1766669,161.673334 97.133334,161.783333 97.0466669,161.87 C96.9599998,161.956667 96.8500009,162 96.7166669,162 L95.7966669,162 C95.6633329,162 95.553334,161.956667 95.4666669,161.87 Z" id="Search" fill="#000000"></path>
        </g>
    </g>
</svg>