<?xml version="1.0" encoding="UTF-8" standalone="no"?>
<svg width="312px" height="420px" viewBox="0 0 312 420" version="1.1" xmlns="http://www.w3.org/2000/svg" xmlns:xlink="http://www.w3.org/1999/xlink">
    <!-- Generator: Sketch 43.2 (39069) - http://www.bohemiancoding.com/sketch -->
    <title>Group</title>
    <desc>Created with Sketch.</desc>
    <defs></defs>
    <g id="Page-1" stroke="none" stroke-width="1" fill="none" fill-rule="evenodd">
        <g id="Group">
            <polygon id="Rectangle-7" fill="#50E3C2" points="40 100 100 80 100 160 40 180"></polygon>
            <polygon id="Rectangle-8" fill="#1AC0B8" points="60 40 100 80 40 100 0 60"></polygon>
            <polygon id="Rectangle-7" fill="#1AC0B8" points="119 260 179 240 179 400 119 420"></polygon>
            <path d="M140,200 L180,240 L120,260 L80,220 L140,200 Z M80,60 L140,40 L140,200 L80,220 L80,60 Z M100,0 L140,40 L80,60 L40,20 L100,0 Z M160,300 L220,280 L220,360 L160,380 L160,300 Z M180,240 L220,280 L160,300 L120,260 L180,240 Z" id="Combined-Shape" fill="#1AC0B8"></path>
            <path d="M0,60 L40,100 L40,180 L0,140 L0,60 Z M80,220 L120,260 L120,420 L80,380 L80,220 Z M40,20 L80,60 L80,220 L40,180 L40,20 Z M120,260 L160,300 L160,380 L120,340 L120,260 Z" id="Combined-Shape" fill="#1A66B8"></path>
            <text id="The-Data-Place" font-family="Rubik-Light, Rubik" font-size="64" font-weight="300" line-spacing="58" letter-spacing="-1.333333" fill="#FFFFFF">
                <tspan x="163" y="77">The</tspan>
                <tspan x="163" y="135">Data</tspan>
                <tspan x="163" y="193">Place</tspan>
            </text>
        </g>
    </g>
</svg>