<?xml version="1.0" encoding="UTF-8" standalone="no"?>
<svg width="50px" height="83px" viewBox="0 0 50 83" version="1.1" xmlns="http://www.w3.org/2000/svg" xmlns:xlink="http://www.w3.org/1999/xlink">
    <!-- Generator: Sketch 41.2 (35397) - http://www.bohemiancoding.com/sketch -->
    <title>Group</title>
    <desc>Created with Sketch.</desc>
    <defs>
        <polygon id="path-1" points="0 27.6666667 11.1111111 38.7333333 11.1111111 60.8666667 0 49.8"></polygon>
        <mask id="mask-2" maskContentUnits="userSpaceOnUse" maskUnits="objectBoundingBox" x="0" y="0" width="11.1111111" height="33.2" fill="white">
            <use xlink:href="#path-1"></use>
        </mask>
        <polygon id="path-3" points="11.1111111 38.7333333 27.7777778 33.2 27.7777778 55.3333333 11.1111111 60.8666667"></polygon>
        <mask id="mask-4" maskContentUnits="userSpaceOnUse" maskUnits="objectBoundingBox" x="0" y="0" width="16.6666667" height="27.6666667" fill="white">
            <use xlink:href="#path-3"></use>
        </mask>
        <polygon id="path-5" points="16.6666667 22.1333333 27.7777778 33.2 11.1111111 38.7333333 0 27.6666667"></polygon>
        <mask id="mask-6" maskContentUnits="userSpaceOnUse" maskUnits="objectBoundingBox" x="0" y="0" width="27.7777778" height="16.6" fill="white">
            <use xlink:href="#path-5"></use>
        </mask>
        <polygon id="path-7" points="11.1111111 38.7333333 22.2222222 49.8 22.2222222 71.9333333 11.1111111 60.8666667"></polygon>
        <mask id="mask-8" maskContentUnits="userSpaceOnUse" maskUnits="objectBoundingBox" x="0" y="0" width="11.1111111" height="33.2" fill="white">
            <use xlink:href="#path-7"></use>
        </mask>
        <polygon id="path-9" points="22.2222222 49.8 38.8888889 44.2666667 38.8888889 66.4 22.2222222 71.9333333"></polygon>
        <mask id="mask-10" maskContentUnits="userSpaceOnUse" maskUnits="objectBoundingBox" x="0" y="0" width="16.6666667" height="27.6666667" fill="white">
            <use xlink:href="#path-9"></use>
        </mask>
        <polygon id="path-11" points="27.7777778 33.2 38.8888889 44.2666667 22.2222222 49.8 11.1111111 38.7333333"></polygon>
        <mask id="mask-12" maskContentUnits="userSpaceOnUse" maskUnits="objectBoundingBox" x="0" y="0" width="27.7777778" height="16.6" fill="white">
            <use xlink:href="#path-11"></use>
        </mask>
        <polygon id="path-13" points="11.1111111 16.6 22.2222222 27.6666667 22.2222222 49.8 11.1111111 38.7333333"></polygon>
        <mask id="mask-14" maskContentUnits="userSpaceOnUse" maskUnits="objectBoundingBox" x="0" y="0" width="11.1111111" height="33.2" fill="white">
            <use xlink:href="#path-13"></use>
        </mask>
        <polygon id="path-15" points="22.2222222 27.6666667 38.8888889 22.1333333 38.8888889 44.2666667 22.2222222 49.8"></polygon>
        <mask id="mask-16" maskContentUnits="userSpaceOnUse" maskUnits="objectBoundingBox" x="0" y="0" width="16.6666667" height="27.6666667" fill="white">
            <use xlink:href="#path-15"></use>
        </mask>
        <polygon id="path-17" points="27.7777778 11.0666667 38.8888889 22.1333333 22.2222222 27.6666667 11.1111111 16.6"></polygon>
        <mask id="mask-18" maskContentUnits="userSpaceOnUse" maskUnits="objectBoundingBox" x="0" y="0" width="27.7777778" height="16.6" fill="white">
            <use xlink:href="#path-17"></use>
        </mask>
        <polygon id="path-19" points="22.2222222 49.8 33.3333333 60.8666667 33.3333333 83 22.2222222 71.9333333"></polygon>
        <mask id="mask-20" maskContentUnits="userSpaceOnUse" maskUnits="objectBoundingBox" x="0" y="0" width="11.1111111" height="33.2" fill="white">
            <use xlink:href="#path-19"></use>
        </mask>
        <polygon id="path-21" points="33.3333333 60.8666667 50 55.3333333 50 77.4666667 33.3333333 83"></polygon>
        <mask id="mask-22" maskContentUnits="userSpaceOnUse" maskUnits="objectBoundingBox" x="0" y="0" width="16.6666667" height="27.6666667" fill="white">
            <use xlink:href="#path-21"></use>
        </mask>
        <polygon id="path-23" points="38.8888889 44.2666667 50 55.3333333 33.3333333 60.8666667 22.2222222 49.8"></polygon>
        <mask id="mask-24" maskContentUnits="userSpaceOnUse" maskUnits="objectBoundingBox" x="0" y="0" width="27.7777778" height="16.6" fill="white">
            <use xlink:href="#path-23"></use>
        </mask>
        <polygon id="path-25" points="22.2222222 27.6666667 33.3333333 38.7333333 33.3333333 60.8666667 22.2222222 49.8"></polygon>
        <mask id="mask-26" maskContentUnits="userSpaceOnUse" maskUnits="objectBoundingBox" x="0" y="0" width="11.1111111" height="33.2" fill="white">
            <use xlink:href="#path-25"></use>
        </mask>
        <polygon id="path-27" points="33.3333333 38.7333333 50 33.2 50 55.3333333 33.3333333 60.8666667"></polygon>
        <mask id="mask-28" maskContentUnits="userSpaceOnUse" maskUnits="objectBoundingBox" x="0" y="0" width="16.6666667" height="27.6666667" fill="white">
            <use xlink:href="#path-27"></use>
        </mask>
        <polygon id="path-29" points="38.8888889 22.1333333 50 33.2 33.3333333 38.7333333 22.2222222 27.6666667"></polygon>
        <mask id="mask-30" maskContentUnits="userSpaceOnUse" maskUnits="objectBoundingBox" x="0" y="0" width="27.7777778" height="16.6" fill="white">
            <use xlink:href="#path-29"></use>
        </mask>
        <polygon id="path-31" points="22.2222222 5.53333333 33.3333333 16.6 33.3333333 38.7333333 22.2222222 27.6666667"></polygon>
        <mask id="mask-32" maskContentUnits="userSpaceOnUse" maskUnits="objectBoundingBox" x="0" y="0" width="11.1111111" height="33.2" fill="white">
            <use xlink:href="#path-31"></use>
        </mask>
        <polygon id="path-33" points="33.3333333 16.6 50 11.0666667 50 33.2 33.3333333 38.7333333"></polygon>
        <mask id="mask-34" maskContentUnits="userSpaceOnUse" maskUnits="objectBoundingBox" x="0" y="0" width="16.6666667" height="27.6666667" fill="white">
            <use xlink:href="#path-33"></use>
        </mask>
        <polygon id="path-35" points="38.8888889 0 50 11.0666667 33.3333333 16.6 22.2222222 5.53333333"></polygon>
        <mask id="mask-36" maskContentUnits="userSpaceOnUse" maskUnits="objectBoundingBox" x="0" y="0" width="27.7777778" height="16.6" fill="white">
            <use xlink:href="#path-35"></use>
        </mask>
        <polygon id="path-37" points="0 27.6666667 11.1111111 38.7333333 11.1111111 60.8666667 0 49.8"></polygon>
        <mask id="mask-38" maskContentUnits="userSpaceOnUse" maskUnits="objectBoundingBox" x="0" y="0" width="11.1111111" height="33.2" fill="white">
            <use xlink:href="#path-37"></use>
        </mask>
        <polygon id="path-39" points="11.1111111 38.7333333 27.7777778 33.2 27.7777778 55.3333333 11.1111111 60.8666667"></polygon>
        <mask id="mask-40" maskContentUnits="userSpaceOnUse" maskUnits="objectBoundingBox" x="0" y="0" width="16.6666667" height="27.6666667" fill="white">
            <use xlink:href="#path-39"></use>
        </mask>
        <polygon id="path-41" points="16.6666667 22.1333333 27.7777778 33.2 11.1111111 38.7333333 0 27.6666667"></polygon>
        <mask id="mask-42" maskContentUnits="userSpaceOnUse" maskUnits="objectBoundingBox" x="0" y="0" width="27.7777778" height="16.6" fill="white">
            <use xlink:href="#path-41"></use>
        </mask>
        <polygon id="path-43" points="11.1111111 38.7333333 22.2222222 49.8 22.2222222 71.9333333 11.1111111 60.8666667"></polygon>
        <mask id="mask-44" maskContentUnits="userSpaceOnUse" maskUnits="objectBoundingBox" x="0" y="0" width="11.1111111" height="33.2" fill="white">
            <use xlink:href="#path-43"></use>
        </mask>
        <polygon id="path-45" points="22.2222222 49.8 38.8888889 44.2666667 38.8888889 66.4 22.2222222 71.9333333"></polygon>
        <mask id="mask-46" maskContentUnits="userSpaceOnUse" maskUnits="objectBoundingBox" x="0" y="0" width="16.6666667" height="27.6666667" fill="white">
            <use xlink:href="#path-45"></use>
        </mask>
        <polygon id="path-47" points="27.7777778 33.2 38.8888889 44.2666667 22.2222222 49.8 11.1111111 38.7333333"></polygon>
        <mask id="mask-48" maskContentUnits="userSpaceOnUse" maskUnits="objectBoundingBox" x="0" y="0" width="27.7777778" height="16.6" fill="white">
            <use xlink:href="#path-47"></use>
        </mask>
        <polygon id="path-49" points="11.1111111 16.6 22.2222222 27.6666667 22.2222222 49.8 11.1111111 38.7333333"></polygon>
        <mask id="mask-50" maskContentUnits="userSpaceOnUse" maskUnits="objectBoundingBox" x="0" y="0" width="11.1111111" height="33.2" fill="white">
            <use xlink:href="#path-49"></use>
        </mask>
        <polygon id="path-51" points="22.2222222 27.6666667 38.8888889 22.1333333 38.8888889 44.2666667 22.2222222 49.8"></polygon>
        <mask id="mask-52" maskContentUnits="userSpaceOnUse" maskUnits="objectBoundingBox" x="0" y="0" width="16.6666667" height="27.6666667" fill="white">
            <use xlink:href="#path-51"></use>
        </mask>
        <polygon id="path-53" points="27.7777778 11.0666667 38.8888889 22.1333333 22.2222222 27.6666667 11.1111111 16.6"></polygon>
        <mask id="mask-54" maskContentUnits="userSpaceOnUse" maskUnits="objectBoundingBox" x="0" y="0" width="27.7777778" height="16.6" fill="white">
            <use xlink:href="#path-53"></use>
        </mask>
        <polygon id="path-55" points="22.2222222 49.8 33.3333333 60.8666667 33.3333333 83 22.2222222 71.9333333"></polygon>
        <mask id="mask-56" maskContentUnits="userSpaceOnUse" maskUnits="objectBoundingBox" x="0" y="0" width="11.1111111" height="33.2" fill="white">
            <use xlink:href="#path-55"></use>
        </mask>
        <polygon id="path-57" points="33.3333333 60.8666667 50 55.3333333 50 77.4666667 33.3333333 83"></polygon>
        <mask id="mask-58" maskContentUnits="userSpaceOnUse" maskUnits="objectBoundingBox" x="0" y="0" width="16.6666667" height="27.6666667" fill="white">
            <use xlink:href="#path-57"></use>
        </mask>
        <polygon id="path-59" points="38.8888889 44.2666667 50 55.3333333 33.3333333 60.8666667 22.2222222 49.8"></polygon>
        <mask id="mask-60" maskContentUnits="userSpaceOnUse" maskUnits="objectBoundingBox" x="0" y="0" width="27.7777778" height="16.6" fill="white">
            <use xlink:href="#path-59"></use>
        </mask>
        <polygon id="path-61" points="22.2222222 27.6666667 33.3333333 38.7333333 33.3333333 60.8666667 22.2222222 49.8"></polygon>
        <mask id="mask-62" maskContentUnits="userSpaceOnUse" maskUnits="objectBoundingBox" x="0" y="0" width="11.1111111" height="33.2" fill="white">
            <use xlink:href="#path-61"></use>
        </mask>
        <polygon id="path-63" points="33.3333333 38.7333333 50 33.2 50 55.3333333 33.3333333 60.8666667"></polygon>
        <mask id="mask-64" maskContentUnits="userSpaceOnUse" maskUnits="objectBoundingBox" x="0" y="0" width="16.6666667" height="27.6666667" fill="white">
            <use xlink:href="#path-63"></use>
        </mask>
        <polygon id="path-65" points="38.8888889 22.1333333 50 33.2 33.3333333 38.7333333 22.2222222 27.6666667"></polygon>
        <mask id="mask-66" maskContentUnits="userSpaceOnUse" maskUnits="objectBoundingBox" x="0" y="0" width="27.7777778" height="16.6" fill="white">
            <use xlink:href="#path-65"></use>
        </mask>
        <polygon id="path-67" points="22.2222222 5.53333333 33.3333333 16.6 33.3333333 38.7333333 22.2222222 27.6666667"></polygon>
        <mask id="mask-68" maskContentUnits="userSpaceOnUse" maskUnits="objectBoundingBox" x="0" y="0" width="11.1111111" height="33.2" fill="white">
            <use xlink:href="#path-67"></use>
        </mask>
        <polygon id="path-69" points="33.3333333 16.6 50 11.0666667 50 33.2 33.3333333 38.7333333"></polygon>
        <mask id="mask-70" maskContentUnits="userSpaceOnUse" maskUnits="objectBoundingBox" x="0" y="0" width="16.6666667" height="27.6666667" fill="white">
            <use xlink:href="#path-69"></use>
        </mask>
        <polygon id="path-71" points="38.8888889 0 50 11.0666667 33.3333333 16.6 22.2222222 5.53333333"></polygon>
        <mask id="mask-72" maskContentUnits="userSpaceOnUse" maskUnits="objectBoundingBox" x="0" y="0" width="27.7777778" height="16.6" fill="white">
            <use xlink:href="#path-71"></use>
        </mask>
    </defs>
    <g id="Page-1" stroke="none" stroke-width="1" fill="none" fill-rule="evenodd">
        <g id="Group" stroke="#FFFFFF" stroke-width="1.11111111">
            <use id="Rectangle-7" mask="url(#mask-2)" fill="#000000" xlink:href="#path-1"></use>
            <use id="Rectangle-7" mask="url(#mask-4)" fill="#000000" xlink:href="#path-3"></use>
            <use id="Rectangle-8" mask="url(#mask-6)" fill="#000000" xlink:href="#path-5"></use>
            <use id="Rectangle-7" mask="url(#mask-8)" fill="#000000" xlink:href="#path-7"></use>
            <use id="Rectangle-7" mask="url(#mask-10)" fill="#000000" xlink:href="#path-9"></use>
            <use id="Rectangle-8" mask="url(#mask-12)" fill="#000000" xlink:href="#path-11"></use>
            <use id="Rectangle-7" mask="url(#mask-14)" fill="#000000" xlink:href="#path-13"></use>
            <use id="Rectangle-7" mask="url(#mask-16)" fill="#000000" xlink:href="#path-15"></use>
            <use id="Rectangle-8" mask="url(#mask-18)" fill="#000000" xlink:href="#path-17"></use>
            <use id="Rectangle-7" mask="url(#mask-20)" fill="#000000" xlink:href="#path-19"></use>
            <use id="Rectangle-7" mask="url(#mask-22)" fill="#000000" xlink:href="#path-21"></use>
            <use id="Rectangle-8" mask="url(#mask-24)" fill="#000000" xlink:href="#path-23"></use>
            <use id="Rectangle-7" mask="url(#mask-26)" fill="#000000" xlink:href="#path-25"></use>
            <use id="Rectangle-7" mask="url(#mask-28)" fill="#000000" xlink:href="#path-27"></use>
            <use id="Rectangle-8" mask="url(#mask-30)" fill="#000000" xlink:href="#path-29"></use>
            <use id="Rectangle-7" mask="url(#mask-32)" fill="#000000" xlink:href="#path-31"></use>
            <use id="Rectangle-7" mask="url(#mask-34)" fill="#000000" xlink:href="#path-33"></use>
            <use id="Rectangle-8" mask="url(#mask-36)" fill="#000000" xlink:href="#path-35"></use>
            <use id="Rectangle-7" mask="url(#mask-38)" fill="#4FD5D6" xlink:href="#path-37"></use>
            <use id="Rectangle-7" mask="url(#mask-40)" fill="#000000" xlink:href="#path-39"></use>
            <use id="Rectangle-8" mask="url(#mask-42)" fill="#00CACC" xlink:href="#path-41"></use>
            <use id="Rectangle-7" mask="url(#mask-44)" fill="#4FD5D6" xlink:href="#path-43"></use>
            <use id="Rectangle-7" mask="url(#mask-46)" fill="#000000" xlink:href="#path-45"></use>
            <use id="Rectangle-8" mask="url(#mask-48)" fill="#000000" xlink:href="#path-47"></use>
            <use id="Rectangle-7" mask="url(#mask-50)" fill="#4FD5D6" xlink:href="#path-49"></use>
            <use id="Rectangle-7" mask="url(#mask-52)" fill="#000000" xlink:href="#path-51"></use>
            <use id="Rectangle-8" mask="url(#mask-54)" fill="#00CACC" xlink:href="#path-53"></use>
            <use id="Rectangle-7" mask="url(#mask-56)" fill="#4FD5D6" xlink:href="#path-55"></use>
            <use id="Rectangle-7" mask="url(#mask-58)" fill="#00CACC" xlink:href="#path-57"></use>
            <use id="Rectangle-8" mask="url(#mask-60)" fill="#000000" xlink:href="#path-59"></use>
            <use id="Rectangle-7" mask="url(#mask-62)" fill="#4FD5D6" xlink:href="#path-61"></use>
            <use id="Rectangle-7" mask="url(#mask-64)" fill="#00CACC" xlink:href="#path-63"></use>
            <use id="Rectangle-8" mask="url(#mask-66)" fill="#000000" xlink:href="#path-65"></use>
            <use id="Rectangle-7" mask="url(#mask-68)" fill="#4FD5D6" xlink:href="#path-67"></use>
            <use id="Rectangle-7" mask="url(#mask-70)" fill="#00CACC" xlink:href="#path-69"></use>
            <use id="Rectangle-8" mask="url(#mask-72)" fill="#00CACC" xlink:href="#path-71"></use>
        </g>
    </g>
</svg>