<?xml version="1.0" encoding="UTF-8" standalone="no"?>
<svg width="180px" height="300px" viewBox="0 0 180 300" version="1.1" xmlns="http://www.w3.org/2000/svg" xmlns:xlink="http://www.w3.org/1999/xlink">
    <!-- Generator: Sketch 41.2 (35397) - http://www.bohemiancoding.com/sketch -->
    <title>Group</title>
    <desc>Created with Sketch.</desc>
    <defs>
        <polygon id="path-1" points="0 99 40 139 40 219 0 179"></polygon>
        <mask id="mask-2" maskContentUnits="userSpaceOnUse" maskUnits="objectBoundingBox" x="0" y="0" width="40" height="120" fill="white">
            <use xlink:href="#path-1"></use>
        </mask>
        <polygon id="path-3" points="40 139 100 119 100 199 40 219"></polygon>
        <mask id="mask-4" maskContentUnits="userSpaceOnUse" maskUnits="objectBoundingBox" x="0" y="0" width="60" height="100" fill="white">
            <use xlink:href="#path-3"></use>
        </mask>
        <polygon id="path-5" points="60 79 100 119 40 139 0 99"></polygon>
        <mask id="mask-6" maskContentUnits="userSpaceOnUse" maskUnits="objectBoundingBox" x="0" y="0" width="100" height="60" fill="white">
            <use xlink:href="#path-5"></use>
        </mask>
        <polygon id="path-7" points="40 139 80 179 80 259 40 219"></polygon>
        <mask id="mask-8" maskContentUnits="userSpaceOnUse" maskUnits="objectBoundingBox" x="0" y="0" width="40" height="120" fill="white">
            <use xlink:href="#path-7"></use>
        </mask>
        <polygon id="path-9" points="80 179 140 159 140 239 80 259"></polygon>
        <mask id="mask-10" maskContentUnits="userSpaceOnUse" maskUnits="objectBoundingBox" x="0" y="0" width="60" height="100" fill="white">
            <use xlink:href="#path-9"></use>
        </mask>
        <polygon id="path-11" points="100 119 140 159 80 179 40 139"></polygon>
        <mask id="mask-12" maskContentUnits="userSpaceOnUse" maskUnits="objectBoundingBox" x="0" y="0" width="100" height="60" fill="white">
            <use xlink:href="#path-11"></use>
        </mask>
        <polygon id="path-13" points="40 59 80 99 80 179 40 139"></polygon>
        <mask id="mask-14" maskContentUnits="userSpaceOnUse" maskUnits="objectBoundingBox" x="0" y="0" width="40" height="120" fill="white">
            <use xlink:href="#path-13"></use>
        </mask>
        <polygon id="path-15" points="80 99 140 79 140 159 80 179"></polygon>
        <mask id="mask-16" maskContentUnits="userSpaceOnUse" maskUnits="objectBoundingBox" x="0" y="0" width="60" height="100" fill="white">
            <use xlink:href="#path-15"></use>
        </mask>
        <polygon id="path-17" points="100 39 140 79 80 99 40 59"></polygon>
        <mask id="mask-18" maskContentUnits="userSpaceOnUse" maskUnits="objectBoundingBox" x="0" y="0" width="100" height="60" fill="white">
            <use xlink:href="#path-17"></use>
        </mask>
        <polygon id="path-19" points="80 180 120 220 120 300 80 260"></polygon>
        <mask id="mask-20" maskContentUnits="userSpaceOnUse" maskUnits="objectBoundingBox" x="0" y="0" width="40" height="120" fill="white">
            <use xlink:href="#path-19"></use>
        </mask>
        <polygon id="path-21" points="120 220 180 200 180 280 120 300"></polygon>
        <mask id="mask-22" maskContentUnits="userSpaceOnUse" maskUnits="objectBoundingBox" x="0" y="0" width="60" height="100" fill="white">
            <use xlink:href="#path-21"></use>
        </mask>
        <polygon id="path-23" points="140 160 180 200 120 220 80 180"></polygon>
        <mask id="mask-24" maskContentUnits="userSpaceOnUse" maskUnits="objectBoundingBox" x="0" y="0" width="100" height="60" fill="white">
            <use xlink:href="#path-23"></use>
        </mask>
        <polygon id="path-25" points="80 100 120 140 120 220 80 180"></polygon>
        <mask id="mask-26" maskContentUnits="userSpaceOnUse" maskUnits="objectBoundingBox" x="0" y="0" width="40" height="120" fill="white">
            <use xlink:href="#path-25"></use>
        </mask>
        <polygon id="path-27" points="120 140 180 120 180 200 120 220"></polygon>
        <mask id="mask-28" maskContentUnits="userSpaceOnUse" maskUnits="objectBoundingBox" x="0" y="0" width="60" height="100" fill="white">
            <use xlink:href="#path-27"></use>
        </mask>
        <polygon id="path-29" points="140 80 180 120 120 140 80 100"></polygon>
        <mask id="mask-30" maskContentUnits="userSpaceOnUse" maskUnits="objectBoundingBox" x="0" y="0" width="100" height="60" fill="white">
            <use xlink:href="#path-29"></use>
        </mask>
        <polygon id="path-31" points="80 20 120 60 120 140 80 100"></polygon>
        <mask id="mask-32" maskContentUnits="userSpaceOnUse" maskUnits="objectBoundingBox" x="0" y="0" width="40" height="120" fill="white">
            <use xlink:href="#path-31"></use>
        </mask>
        <polygon id="path-33" points="120 60 180 40 180 120 120 140"></polygon>
        <mask id="mask-34" maskContentUnits="userSpaceOnUse" maskUnits="objectBoundingBox" x="0" y="0" width="60" height="100" fill="white">
            <use xlink:href="#path-33"></use>
        </mask>
        <polygon id="path-35" points="140 0 180 40 120 60 80 20"></polygon>
        <mask id="mask-36" maskContentUnits="userSpaceOnUse" maskUnits="objectBoundingBox" x="0" y="0" width="100" height="60" fill="white">
            <use xlink:href="#path-35"></use>
        </mask>
    </defs>
    <g id="Page-1" stroke="none" stroke-width="1" fill="none" fill-rule="evenodd">
        <g id="Group" stroke="#FFFFFF" stroke-width="2" fill="#169385">
            <use id="Rectangle-7" mask="url(#mask-2)" xlink:href="#path-1"></use>
            <use id="Rectangle-7" mask="url(#mask-4)" xlink:href="#path-3"></use>
            <use id="Rectangle-8" mask="url(#mask-6)" xlink:href="#path-5"></use>
            <use id="Rectangle-7" mask="url(#mask-8)" xlink:href="#path-7"></use>
            <use id="Rectangle-7" mask="url(#mask-10)" xlink:href="#path-9"></use>
            <use id="Rectangle-8" mask="url(#mask-12)" xlink:href="#path-11"></use>
            <use id="Rectangle-7" mask="url(#mask-14)" xlink:href="#path-13"></use>
            <use id="Rectangle-7" mask="url(#mask-16)" xlink:href="#path-15"></use>
            <use id="Rectangle-8" mask="url(#mask-18)" xlink:href="#path-17"></use>
            <use id="Rectangle-7" mask="url(#mask-20)" xlink:href="#path-19"></use>
            <use id="Rectangle-7" mask="url(#mask-22)" xlink:href="#path-21"></use>
            <use id="Rectangle-8" mask="url(#mask-24)" xlink:href="#path-23"></use>
            <use id="Rectangle-7" mask="url(#mask-26)" xlink:href="#path-25"></use>
            <use id="Rectangle-7" mask="url(#mask-28)" xlink:href="#path-27"></use>
            <use id="Rectangle-8" mask="url(#mask-30)" xlink:href="#path-29"></use>
            <use id="Rectangle-7" mask="url(#mask-32)" xlink:href="#path-31"></use>
            <use id="Rectangle-7" mask="url(#mask-34)" xlink:href="#path-33"></use>
            <use id="Rectangle-8" mask="url(#mask-36)" xlink:href="#path-35"></use>
        </g>
    </g>
</svg>