<?xml version="1.0" encoding="UTF-8" standalone="no"?>
<svg width="116px" height="150px" viewBox="0 0 116 150" version="1.1" xmlns="http://www.w3.org/2000/svg" xmlns:xlink="http://www.w3.org/1999/xlink">
    <!-- Generator: Sketch 41.2 (35397) - http://www.bohemiancoding.com/sketch -->
    <title>Group</title>
    <desc>Created with Sketch.</desc>
    <defs>
        <polygon id="path-1" points="0 21.4285714 14.2769231 35.7142857 14.2769231 64.2857143 0 50"></polygon>
        <mask id="mask-2" maskContentUnits="userSpaceOnUse" maskUnits="objectBoundingBox" x="0" y="0" width="14.2769231" height="42.8571429" fill="white">
            <use xlink:href="#path-1"></use>
        </mask>
        <polygon id="path-3" points="14.2769231 35.7142857 35.6923077 28.5714286 35.6923077 57.1428571 14.2769231 64.2857143"></polygon>
        <mask id="mask-4" maskContentUnits="userSpaceOnUse" maskUnits="objectBoundingBox" x="0" y="0" width="21.4153846" height="35.7142857" fill="white">
            <use xlink:href="#path-3"></use>
        </mask>
        <polygon id="path-5" points="21.4153846 14.2857143 35.6923077 28.5714286 14.2769231 35.7142857 0 21.4285714"></polygon>
        <mask id="mask-6" maskContentUnits="userSpaceOnUse" maskUnits="objectBoundingBox" x="0" y="0" width="35.6923077" height="21.4285714" fill="white">
            <use xlink:href="#path-5"></use>
        </mask>
        <polygon id="path-7" points="28.5538462 78.5714286 42.8307692 92.8571429 42.8307692 150 28.5538462 135.714286"></polygon>
        <mask id="mask-8" maskContentUnits="userSpaceOnUse" maskUnits="objectBoundingBox" x="0" y="0" width="14.2769231" height="71.4285714" fill="white">
            <use xlink:href="#path-7"></use>
        </mask>
        <polygon id="path-9" points="42.8307692 92.8571429 64.2461538 85.7142857 64.2461538 142.857143 42.8307692 150"></polygon>
        <mask id="mask-10" maskContentUnits="userSpaceOnUse" maskUnits="objectBoundingBox" x="0" y="0" width="21.4153846" height="64.2857143" fill="white">
            <use xlink:href="#path-9"></use>
        </mask>
        <polygon id="path-11" points="49.9692308 71.4285714 64.2461538 85.7142857 42.8307692 92.8571429 28.5538462 78.5714286"></polygon>
        <mask id="mask-12" maskContentUnits="userSpaceOnUse" maskUnits="objectBoundingBox" x="0" y="0" width="35.6923077" height="21.4285714" fill="white">
            <use xlink:href="#path-11"></use>
        </mask>
        <polygon id="path-13" points="14.2769231 7.14285714 28.5538462 21.4285714 28.5538462 78.5714286 14.2769231 64.2857143"></polygon>
        <mask id="mask-14" maskContentUnits="userSpaceOnUse" maskUnits="objectBoundingBox" x="0" y="0" width="14.2769231" height="71.4285714" fill="white">
            <use xlink:href="#path-13"></use>
        </mask>
        <polygon id="path-15" points="28.5538462 21.4285714 49.9692308 14.2857143 49.9692308 71.4285714 28.5538462 78.5714286"></polygon>
        <mask id="mask-16" maskContentUnits="userSpaceOnUse" maskUnits="objectBoundingBox" x="0" y="0" width="21.4153846" height="64.2857143" fill="white">
            <use xlink:href="#path-15"></use>
        </mask>
        <polygon id="path-17" points="35.6923077 0 49.9692308 14.2857143 28.5538462 21.4285714 14.2769231 7.14285714"></polygon>
        <mask id="mask-18" maskContentUnits="userSpaceOnUse" maskUnits="objectBoundingBox" x="0" y="0" width="35.6923077" height="21.4285714" fill="white">
            <use xlink:href="#path-17"></use>
        </mask>
        <polygon id="path-19" points="42.8307692 92.8571429 57.1076923 107.142857 57.1076923 135.714286 42.8307692 121.428571"></polygon>
        <mask id="mask-20" maskContentUnits="userSpaceOnUse" maskUnits="objectBoundingBox" x="0" y="0" width="14.2769231" height="42.8571429" fill="white">
            <use xlink:href="#path-19"></use>
        </mask>
        <polygon id="path-21" points="57.1076923 107.142857 78.5230769 100 78.5230769 128.571429 57.1076923 135.714286"></polygon>
        <mask id="mask-22" maskContentUnits="userSpaceOnUse" maskUnits="objectBoundingBox" x="0" y="0" width="21.4153846" height="35.7142857" fill="white">
            <use xlink:href="#path-21"></use>
        </mask>
        <polygon id="path-23" points="64.2461538 85.7142857 78.5230769 100 57.1076923 107.142857 42.8307692 92.8571429"></polygon>
        <mask id="mask-24" maskContentUnits="userSpaceOnUse" maskUnits="objectBoundingBox" x="0" y="0" width="35.6923077" height="21.4285714" fill="white">
            <use xlink:href="#path-23"></use>
        </mask>
    </defs>
    <g id="Page-1" stroke="none" stroke-width="1" fill="none" fill-rule="evenodd">
        <g id="Group">
            <path d="M66.3305846,28.0657143 C66.2315975,27.9666662 66.1821046,27.8409531 66.1821046,27.6885714 L66.1821046,14.18 L61.7733908,14.18 C61.6211028,14.18 61.4954672,14.1304767 61.39648,14.0314286 C61.2974928,13.9323805 61.248,13.8066674 61.248,13.6542857 L61.248,12.7628571 C61.248,12.5952373 61.2974928,12.4619053 61.39648,12.3628571 C61.4954672,12.263809 61.6211028,12.2142857 61.7733908,12.2142857 L72.7380677,12.2142857 C72.9055844,12.2142857 73.0350272,12.263809 73.1264,12.3628571 C73.2177728,12.4619053 73.2634585,12.5952373 73.2634585,12.7628571 L73.2634585,13.6542857 C73.2634585,13.8066674 73.2139656,13.9323805 73.1149785,14.0314286 C73.0159913,14.1304767 72.8903556,14.18 72.7380677,14.18 L68.3521969,14.18 L68.3521969,27.6885714 C68.3521969,27.8409531 68.2988969,27.9666662 68.1922954,28.0657143 C68.0856938,28.1647624 67.956251,28.2142857 67.8039631,28.2142857 L66.7074954,28.2142857 C66.5552074,28.2142857 66.4295718,28.1647624 66.3305846,28.0657143 Z M74.8091734,28.0657143 C74.7101862,27.9666662 74.6606934,27.8409531 74.6606934,27.6885714 L74.6606934,12.5114286 C74.6606934,12.3438087 74.7101862,12.2142862 74.8091734,12.1228571 C74.9081605,12.0314281 75.0337962,11.9857143 75.1860841,11.9857143 L76.2368657,11.9857143 C76.4043824,11.9857143 76.5338252,12.0314281 76.625198,12.1228571 C76.7165707,12.2142862 76.7622564,12.3438087 76.7622564,12.5114286 L76.7622564,17.8371429 C77.2038915,17.2733305 77.7254698,16.8428586 78.3270072,16.5457143 C78.9285446,16.2485699 79.6709372,16.1 80.5542072,16.1 C82.0161714,16.1 83.1545067,16.5685667 83.9692472,17.5057143 C84.7839877,18.4428618 85.1913518,19.6809447 85.1913518,21.22 L85.1913518,27.6885714 C85.1913518,27.8409531 85.141859,27.9666662 85.0428718,28.0657143 C84.9438847,28.1647624 84.818249,28.2142857 84.6659611,28.2142857 L83.5923364,28.2142857 C83.4400485,28.2142857 83.3144128,28.1647624 83.2154257,28.0657143 C83.1164385,27.9666662 83.0669457,27.8409531 83.0669457,27.6885714 L83.0669457,21.3571429 C83.0669457,20.2599945 82.8004458,19.4066697 82.267438,18.7971429 C81.7344302,18.187616 80.9653876,17.8828571 79.9602872,17.8828571 C78.9856444,17.8828571 78.2089875,18.1914255 77.6302934,18.8085714 C77.0515992,19.4257174 76.7622564,20.2752327 76.7622564,21.3571429 L76.7622564,27.6885714 C76.7622564,27.8409531 76.7127636,27.9666662 76.6137764,28.0657143 C76.5147893,28.1647624 76.3891536,28.2142857 76.2368657,28.2142857 L75.1860841,28.2142857 C75.0337962,28.2142857 74.9081605,28.1647624 74.8091734,28.0657143 Z M89.0099529,26.9914286 C88.0809964,26.0238047 87.5708395,24.7019131 87.4794667,23.0257143 L87.4566236,22.2485714 L87.4794667,21.4942857 C87.5708395,19.8485632 88.0809964,18.5381001 89.0099529,17.5628571 C89.9389093,16.5876142 91.1800374,16.1 92.7333744,16.1 C94.4085418,16.1 95.706777,16.633328 96.628119,17.7 C97.5494611,18.766672 98.0101252,20.2142766 98.0101252,22.0428571 L98.0101252,22.4542857 C98.0101252,22.6066674 97.9606323,22.7323805 97.8616452,22.8314286 C97.762658,22.9304767 97.6370224,22.98 97.4847344,22.98 L89.5581867,22.98 L89.5581867,23.1857143 C89.6038731,24.1761954 89.9084444,25.0219013 90.4719098,25.7228571 C91.0353752,26.423813 91.7815749,26.7742857 92.7105313,26.7742857 C93.4262847,26.7742857 94.0087773,26.6333347 94.4580267,26.3514286 C94.9072761,26.0695224 95.2461117,25.776192 95.4745436,25.4714286 C95.6116028,25.2885705 95.7182028,25.1780954 95.7943467,25.14 C95.8704907,25.1019046 95.9999335,25.0828571 96.182679,25.0828571 L97.1877744,25.0828571 C97.3248336,25.0828571 97.4428549,25.120952 97.5418421,25.1971429 C97.6408293,25.2733337 97.6903221,25.3723803 97.6903221,25.4942857 C97.6903221,25.8295255 97.4847365,26.233331 97.073559,26.7057143 C96.6623816,27.1780976 96.079889,27.5857126 95.3260636,27.9285714 C94.5722383,28.2714303 93.7080172,28.4428571 92.7333744,28.4428571 C91.1800374,28.4428571 89.9389093,27.9590525 89.0099529,26.9914286 Z M95.9314052,21.4257143 L95.9314052,21.3571429 C95.9314052,20.2904709 95.6420624,19.4219081 95.0633683,18.7514286 C94.4846741,18.080949 93.7080172,17.7457143 92.7333744,17.7457143 C91.7435028,17.7457143 90.966846,18.080949 90.4033806,18.7514286 C89.8399152,19.4219081 89.5581867,20.2904709 89.5581867,21.3571429 L89.5581867,21.4257143 L95.9314052,21.4257143 Z M62.8241723,48.4228571 C62.7327995,48.323809 62.6871138,48.198096 62.6871138,48.0457143 L62.6871138,33.12 C62.6871138,32.9523801 62.7327995,32.8190481 62.8241723,32.72 C62.9155451,32.6209519 63.0373736,32.5714286 63.1896615,32.5714286 L68.3521969,32.5714286 C70.6517448,32.5714286 72.3116585,33.0857091 73.3319877,34.1142857 C74.3523169,35.1428623 74.8777024,36.693323 74.90816,38.7657143 C74.9233888,39.2076213 74.9310031,39.801901 74.9310031,40.5485714 C74.9310031,41.2952418 74.9233888,41.8971406 74.90816,42.3542857 C74.8777024,43.801912 74.6454668,44.9790431 74.2114462,45.8857143 C73.7774255,46.7923855 73.0959472,47.4666645 72.1669908,47.9085714 C71.2380343,48.3504784 70.0045205,48.5714286 68.4664123,48.5714286 L63.1896615,48.5714286 C63.0373736,48.5714286 62.9155451,48.5219053 62.8241723,48.4228571 Z M68.3521969,46.6742857 C69.4182125,46.6742857 70.267205,46.5257158 70.8992,46.2285714 C71.531195,45.9314271 71.9880519,45.4666698 72.2697846,44.8342857 C72.5515173,44.2019016 72.7076101,43.3447673 72.7380677,42.2628571 C72.7685253,41.3485669 72.7837538,40.777144 72.7837538,40.5485714 C72.7837538,40.3047607 72.7685253,39.7409568 72.7380677,38.8571429 C72.7076101,37.3333257 72.3459317,36.2171464 71.6530215,35.5085714 C70.9601114,34.7999965 69.8217761,34.4457143 68.2379815,34.4457143 L64.8343631,34.4457143 L64.8343631,46.6742857 L68.3521969,46.6742857 Z M78.852398,48.3428571 C78.220403,48.0380937 77.7178604,47.6228598 77.3447549,47.0971429 C76.9716494,46.5714259 76.7850995,45.9885746 76.7850995,45.3485714 C76.7850995,44.3428521 77.1962708,43.5200032 78.0186257,42.88 C78.8409806,42.2399968 79.9602801,41.8133344 81.376558,41.6 L84.8030195,41.12 L84.8030195,40.4571429 C84.8030195,38.8876112 83.8969199,38.1028571 82.0846934,38.1028571 C81.3841688,38.1028571 80.8207119,38.2438081 80.3943057,38.5257143 C79.9678994,38.8076205 79.6557138,39.1390457 79.4577395,39.52 C79.3968243,39.6723817 79.3321029,39.7752378 79.2635734,39.8285714 C79.1950438,39.881905 79.0998653,39.9085714 78.9780349,39.9085714 L78.0871549,39.9085714 C77.9500958,39.9085714 77.8320744,39.8590481 77.7330872,39.76 C77.6341,39.6609519 77.5846072,39.5428578 77.5846072,39.4057143 C77.5846072,39.0552363 77.7483143,38.6476214 78.0757334,38.1828571 C78.4031524,37.7180929 78.9095022,37.3142874 79.594798,36.9714286 C80.2800937,36.6285697 81.1176648,36.4571429 82.1075364,36.4571429 C83.8131614,36.4571429 85.0352538,36.8533294 85.7738503,37.6457143 C86.5124468,38.4380992 86.8817395,39.4285655 86.8817395,40.6171429 L86.8817395,48.0457143 C86.8817395,48.198096 86.8322467,48.323809 86.7332595,48.4228571 C86.6342724,48.5219053 86.5086367,48.5714286 86.3563487,48.5714286 L85.3512534,48.5714286 C85.1989654,48.5714286 85.0771369,48.5219053 84.9857641,48.4228571 C84.8943914,48.323809 84.8487057,48.198096 84.8487057,48.0457143 L84.8487057,47.04 C84.5136722,47.5428597 84.0263581,47.9619031 83.3867487,48.2971429 C82.7471394,48.6323826 81.9247968,48.8 80.9196964,48.8 C80.1734855,48.8 79.4843929,48.6476206 78.852398,48.3428571 Z M83.8436103,46.1485714 C84.4832196,45.4933301 84.8030195,44.5409586 84.8030195,43.2914286 L84.8030195,42.6514286 L82.1303795,43.04 C81.0339063,43.1923817 80.2039495,43.4514267 79.6404841,43.8171429 C79.0770187,44.182859 78.7952903,44.6399973 78.7952903,45.1885714 C78.7952903,45.8133365 79.0503688,46.2933317 79.5605334,46.6285714 C80.070698,46.9638112 80.6760334,47.1314286 81.376558,47.1314286 C82.3816584,47.1314286 83.2040009,46.8038128 83.8436103,46.1485714 Z M90.6318113,44.5714286 L90.6318113,38.4457143 L88.8272083,38.4457143 C88.6749203,38.4457143 88.5530918,38.4000005 88.461719,38.3085714 C88.3703463,38.2171424 88.3246606,38.0952389 88.3246606,37.9428571 L88.3246606,37.2114286 C88.3246606,37.0590469 88.3703463,36.9333338 88.461719,36.8342857 C88.5530918,36.7352376 88.6749203,36.6857143 88.8272083,36.6857143 L90.6318113,36.6857143 L90.6318113,32.8685714 C90.6318113,32.7161897 90.677497,32.5904767 90.7688698,32.4914286 C90.8602426,32.3923805 90.9820711,32.3428571 91.134359,32.3428571 L92.1394544,32.3428571 C92.2917424,32.3428571 92.417378,32.3923805 92.5163652,32.4914286 C92.6153523,32.5904767 92.6648452,32.7161897 92.6648452,32.8685714 L92.6648452,36.6857143 L95.4973867,36.6857143 C95.6496747,36.6857143 95.7753103,36.7352376 95.8742975,36.8342857 C95.9732847,36.9333338 96.0227775,37.0590469 96.0227775,37.2114286 L96.0227775,37.9428571 C96.0227775,38.0952389 95.9732847,38.2171424 95.8742975,38.3085714 C95.7753103,38.4000005 95.6496747,38.4457143 95.4973867,38.4457143 L92.6648452,38.4457143 L92.6648452,44.4114286 C92.6648452,45.1885753 92.7904809,45.7752361 93.041756,46.1714286 C93.2930311,46.567621 93.723238,46.7657143 94.3323898,46.7657143 L95.7258175,46.7657143 C95.8781054,46.7657143 95.999934,46.8152376 96.0913067,46.9142857 C96.1826795,47.0133338 96.2283652,47.1390469 96.2283652,47.2914286 L96.2283652,48.0457143 C96.2283652,48.198096 96.1826795,48.323809 96.0913067,48.4228571 C95.999934,48.5219053 95.8781054,48.5714286 95.7258175,48.5714286 L94.1724883,48.5714286 C91.8120252,48.5714286 90.6318113,47.2381086 90.6318113,44.5714286 Z M99.2131939,48.3428571 C98.581199,48.0380937 98.0786563,47.6228598 97.7055509,47.0971429 C97.3324454,46.5714259 97.1458955,45.9885746 97.1458955,45.3485714 C97.1458955,44.3428521 97.5570667,43.5200032 98.3794216,42.88 C99.2017765,42.2399968 100.321076,41.8133344 101.737354,41.6 L105.163815,41.12 L105.163815,40.4571429 C105.163815,38.8876112 104.257716,38.1028571 102.445489,38.1028571 C101.744965,38.1028571 101.181508,38.2438081 100.755102,38.5257143 C100.328695,38.8076205 100.01651,39.1390457 99.8185355,39.52 C99.7576203,39.6723817 99.6928989,39.7752378 99.6243693,39.8285714 C99.5558397,39.881905 99.4606612,39.9085714 99.3388309,39.9085714 L98.4479509,39.9085714 C98.3108917,39.9085714 98.1928703,39.8590481 98.0938832,39.76 C97.994896,39.6609519 97.9454032,39.5428578 97.9454032,39.4057143 C97.9454032,39.0552363 98.1091102,38.6476214 98.4365293,38.1828571 C98.7639484,37.7180929 99.2702982,37.3142874 99.9555939,36.9714286 C100.64089,36.6285697 101.478461,36.4571429 102.468332,36.4571429 C104.173957,36.4571429 105.39605,36.8533294 106.134646,37.6457143 C106.873243,38.4380992 107.242535,39.4285655 107.242535,40.6171429 L107.242535,48.0457143 C107.242535,48.198096 107.193043,48.323809 107.094055,48.4228571 C106.995068,48.5219053 106.869433,48.5714286 106.717145,48.5714286 L105.712049,48.5714286 C105.559761,48.5714286 105.437933,48.5219053 105.34656,48.4228571 C105.255187,48.323809 105.209502,48.198096 105.209502,48.0457143 L105.209502,47.04 C104.874468,47.5428597 104.387154,47.9619031 103.747545,48.2971429 C103.107935,48.6323826 102.285593,48.8 101.280492,48.8 C100.534281,48.8 99.8451889,48.6476206 99.2131939,48.3428571 Z M104.204406,46.1485714 C104.844016,45.4933301 105.163815,44.5409586 105.163815,43.2914286 L105.163815,42.6514286 L102.491175,43.04 C101.394702,43.1923817 100.564745,43.4514267 100.00128,43.8171429 C99.4378147,44.182859 99.1560862,44.6399973 99.1560862,45.1885714 C99.1560862,45.8133365 99.4111647,46.2933317 99.9213293,46.6285714 C100.431494,46.9638112 101.036829,47.1314286 101.737354,47.1314286 C102.742454,47.1314286 103.564797,46.8038128 104.204406,46.1485714 Z M62.8241723,68.78 C62.7327995,68.6809519 62.6871138,68.5552389 62.6871138,68.4028571 L62.6871138,53.4771429 C62.6871138,53.309523 62.7327995,53.176191 62.8241723,53.0771429 C62.9155451,52.9780947 63.0373736,52.9285714 63.1896615,52.9285714 L68.96896,52.9285714 C70.6898137,52.9285714 72.0413489,53.3438054 73.0236062,54.1742857 C74.0058634,55.0047661 74.4969846,56.212373 74.4969846,57.7971429 C74.4969846,59.3819127 74.0058634,60.5857102 73.0236062,61.4085714 C72.0413489,62.2314327 70.6898137,62.6428571 68.96896,62.6428571 L64.8572062,62.6428571 L64.8572062,68.4028571 C64.8572062,68.5552389 64.8077133,68.6809519 64.7087262,68.78 C64.609739,68.8790481 64.4841033,68.9285714 64.3318154,68.9285714 L63.1896615,68.9285714 C63.0373736,68.9285714 62.9155451,68.8790481 62.8241723,68.78 Z M68.8547446,60.7914286 C71.1542925,60.7914286 72.3040492,59.7933433 72.3040492,57.7971429 C72.3040492,56.8218999 72.0185136,56.0752407 71.4474338,55.5571429 C70.8763541,55.039045 70.012133,54.78 68.8547446,54.78 L64.8572062,54.78 L64.8572062,60.7914286 L68.8547446,60.7914286 Z M76.7279918,68.78 C76.6290047,68.6809519 76.5795118,68.5552389 76.5795118,68.4028571 L76.5795118,53.2257143 C76.5795118,53.0580944 76.6290047,52.9285719 76.7279918,52.8371429 C76.826979,52.7457138 76.9526147,52.7 77.1049026,52.7 L78.109998,52.7 C78.2622859,52.7 78.3879216,52.7495233 78.4869087,52.8485714 C78.5858959,52.9476195 78.6353887,53.0733326 78.6353887,53.2257143 L78.6353887,68.4028571 C78.6353887,68.5552389 78.5858959,68.6809519 78.4869087,68.78 C78.3879216,68.8790481 78.2622859,68.9285714 78.109998,68.9285714 L77.1049026,68.9285714 C76.9526147,68.9285714 76.826979,68.8790481 76.7279918,68.78 Z M82.8080575,68.7 C82.1760625,68.3952366 81.6735199,67.9800026 81.3004144,67.4542857 C80.927309,66.9285688 80.740759,66.3457175 80.740759,65.7057143 C80.740759,64.699995 81.1519303,63.8771461 81.9742852,63.2371429 C82.7966401,62.5971397 83.9159396,62.1704773 85.3322175,61.9571429 L88.758679,61.4771429 L88.758679,60.8142857 C88.758679,59.2447541 87.8525794,58.46 86.0403529,58.46 C85.3398283,58.46 84.7763714,58.600951 84.3499652,58.8828571 C83.923559,59.1647633 83.6113734,59.4961886 83.413399,59.8771429 C83.3524839,60.0295246 83.2877625,60.1323807 83.2192329,60.1857143 C83.1507033,60.2390479 83.0555248,60.2657143 82.9336944,60.2657143 L82.0428144,60.2657143 C81.9057553,60.2657143 81.7877339,60.216191 81.6887467,60.1171429 C81.5897596,60.0180947 81.5402667,59.9000007 81.5402667,59.7628571 C81.5402667,59.4123792 81.7039738,59.0047642 82.0313929,58.54 C82.358812,58.0752358 82.8651618,57.6714303 83.5504575,57.3285714 C84.2357532,56.9857126 85.0733243,56.8142857 86.063196,56.8142857 C87.7688209,56.8142857 88.9909133,57.2104722 89.7295098,58.0028571 C90.4681063,58.7952421 90.837399,59.7857083 90.837399,60.9742857 L90.837399,68.4028571 C90.837399,68.5552389 90.7879062,68.6809519 90.688919,68.78 C90.5899319,68.8790481 90.4642962,68.9285714 90.3120083,68.9285714 L89.3069129,68.9285714 C89.1546249,68.9285714 89.0327964,68.8790481 88.9414236,68.78 C88.8500509,68.6809519 88.8043652,68.5552389 88.8043652,68.4028571 L88.8043652,67.3971429 C88.4693317,67.9000025 87.9820176,68.3190459 87.3424083,68.6542857 C86.7027989,68.9895255 85.8804564,69.1571429 84.875356,69.1571429 C84.129145,69.1571429 83.4400524,69.0047634 82.8080575,68.7 Z M87.7992698,66.5057143 C88.4388792,65.8504729 88.758679,64.8981015 88.758679,63.6485714 L88.758679,63.0085714 L86.086039,63.3971429 C84.9895659,63.5495246 84.159609,63.8085696 83.5961436,64.1742857 C83.0326783,64.5400018 82.7509498,64.9971401 82.7509498,65.5457143 C82.7509498,66.1704793 83.0060283,66.6504745 83.5161929,66.9857143 C84.0263575,67.3209541 84.631693,67.4885714 85.3322175,67.4885714 C86.3373179,67.4885714 87.1596604,67.1609557 87.7992698,66.5057143 Z M94.6103139,67.7742857 C93.6965863,66.8523763 93.2168865,65.5609607 93.1712001,63.9 L93.148357,62.9857143 L93.1712001,62.0714286 C93.2168865,60.4104679 93.6965863,59.1190522 94.6103139,58.1971429 C95.5240416,57.2752335 96.7956268,56.8142857 98.4251078,56.8142857 C99.521581,56.8142857 100.446716,57.0085695 101.200542,57.3971429 C101.954367,57.7857162 102.517824,58.2695209 102.890929,58.8485714 C103.264035,59.4276219 103.465813,60.0066638 103.496271,60.5857143 C103.5115,60.7228578 103.462007,60.8447614 103.347791,60.9514286 C103.233575,61.0580958 103.107939,61.1114286 102.97088,61.1114286 L101.965785,61.1114286 C101.813497,61.1114286 101.699283,61.0771432 101.623139,61.0085714 C101.546995,60.9399997 101.470852,60.8142866 101.394708,60.6314286 C101.120589,59.8847582 100.743682,59.3552397 100.263975,59.0428571 C99.7842685,58.7304746 99.178933,58.5742857 98.4479509,58.5742857 C97.4885368,58.5742857 96.7271085,58.8714256 96.1636432,59.4657143 C95.6001778,60.060003 95.2956065,60.9666606 95.2499201,62.1857143 L95.227077,62.9857143 L95.2499201,63.7857143 C95.2956065,65.004768 95.6001778,65.9114256 96.1636432,66.5057143 C96.7271085,67.100003 97.4885368,67.3971429 98.4479509,67.3971429 C99.1941618,67.3971429 99.8033044,67.2409539 100.275397,66.9285714 C100.74749,66.6161889 101.120589,66.0866704 101.394708,65.34 C101.470852,65.1571419 101.546995,65.0314289 101.623139,64.9628571 C101.699283,64.8942854 101.813497,64.86 101.965785,64.86 L102.97088,64.86 C103.107939,64.86 103.233575,64.9133328 103.347791,65.02 C103.462007,65.1266672 103.5115,65.2485707 103.496271,65.3857143 C103.465813,65.9495266 103.264035,66.5209495 102.890929,67.1 C102.517824,67.6790505 101.954367,68.1666647 101.200542,68.5628571 C100.446716,68.9590496 99.521581,69.1571429 98.4251078,69.1571429 C96.7956268,69.1571429 95.5240416,68.6961951 94.6103139,67.7742857 Z M106.743795,67.7057143 C105.814839,66.7380904 105.304682,65.4161989 105.213309,63.74 L105.190466,62.9628571 L105.213309,62.2085714 C105.304682,60.5628489 105.814839,59.2523858 106.743795,58.2771429 C107.672751,57.3018999 108.91388,56.8142857 110.467217,56.8142857 C112.142384,56.8142857 113.440619,57.3476137 114.361961,58.4142857 C115.283303,59.4809577 115.743967,60.9285623 115.743967,62.7571429 L115.743967,63.1685714 C115.743967,63.3209531 115.694474,63.4466662 115.595487,63.5457143 C115.4965,63.6447624 115.370864,63.6942857 115.218577,63.6942857 L107.292029,63.6942857 L107.292029,63.9 C107.337715,64.8904811 107.642287,65.736187 108.205752,66.4371429 C108.769217,67.1380987 109.515417,67.4885714 110.444373,67.4885714 C111.160127,67.4885714 111.742619,67.3476205 112.191869,67.0657143 C112.641118,66.7838081 112.979954,66.4904777 113.208386,66.1857143 C113.345445,66.0028562 113.452045,65.8923811 113.528189,65.8542857 C113.604333,65.8161903 113.733776,65.7971429 113.916521,65.7971429 L114.921617,65.7971429 C115.058676,65.7971429 115.176697,65.8352377 115.275684,65.9114286 C115.374671,65.9876194 115.424164,66.0866661 115.424164,66.2085714 C115.424164,66.5438112 115.218579,66.9476167 114.807401,67.42 C114.396224,67.8923833 113.813731,68.2999983 113.059906,68.6428571 C112.30608,68.985716 111.441859,69.1571429 110.467217,69.1571429 C108.91388,69.1571429 107.672751,68.6733382 106.743795,67.7057143 Z M113.665247,62.14 L113.665247,62.0714286 C113.665247,61.0047566 113.375905,60.1361938 112.79721,59.4657143 C112.218516,58.7952347 111.441859,58.46 110.467217,58.46 C109.477345,58.46 108.700688,58.7952347 108.137223,59.4657143 C107.573757,60.1361938 107.292029,61.0047566 107.292029,62.0714286 L107.292029,62.14 L113.665247,62.14 Z" id="The-Data-Place" fill="#FFFFFF"></path>
            <use id="Rectangle-7" stroke="#FFFFFF" mask="url(#mask-2)" fill="#169385" xlink:href="#path-1"></use>
            <use id="Rectangle-7" stroke="#FFFFFF" mask="url(#mask-4)" fill="#169385" xlink:href="#path-3"></use>
            <use id="Rectangle-8" stroke="#FFFFFF" mask="url(#mask-6)" fill="#169385" xlink:href="#path-5"></use>
            <use id="Rectangle-7" stroke="#FFFFFF" mask="url(#mask-8)" fill="#169385" xlink:href="#path-7"></use>
            <use id="Rectangle-7" stroke="#FFFFFF" mask="url(#mask-10)" fill="#169385" xlink:href="#path-9"></use>
            <use id="Rectangle-8" stroke="#FFFFFF" mask="url(#mask-12)" fill="#169385" xlink:href="#path-11"></use>
            <use id="Rectangle-7" stroke="#FFFFFF" mask="url(#mask-14)" fill="#169385" xlink:href="#path-13"></use>
            <use id="Rectangle-7" stroke="#FFFFFF" mask="url(#mask-16)" fill="#169385" xlink:href="#path-15"></use>
            <use id="Rectangle-8" stroke="#FFFFFF" mask="url(#mask-18)" fill="#169385" xlink:href="#path-17"></use>
            <use id="Rectangle-7" stroke="#FFFFFF" mask="url(#mask-20)" fill="#169385" xlink:href="#path-19"></use>
            <use id="Rectangle-7" stroke="#FFFFFF" mask="url(#mask-22)" fill="#169385" xlink:href="#path-21"></use>
            <use id="Rectangle-8" stroke="#FFFFFF" mask="url(#mask-24)" fill="#169385" xlink:href="#path-23"></use>
        </g>
    </g>
</svg>